<svg width="512.000000" height="512.000000" viewBox="0 0 512 512" fill="none" xmlns="http://www.w3.org/2000/svg" xmlns:xlink="http://www.w3.org/1999/xlink">
	<desc>
			Created with Pixso.
	</desc>
	<defs>
		<clipPath id="clip1496_106">
			<rect id="Favicon 512x512" rx="0.000000" width="511.000000" height="511.000000" transform="translate(0.500000 0.500000)" fill="white" fill-opacity="0"/>
		</clipPath>
	</defs>
	<g clip-path="url(#clip1496_106)">
		<path id="B" d="M371.52 245.02C391.55 251.78 407.11 262.78 418.19 278C429.27 293.22 434.82 312.25 434.82 335.09C434.82 379.91 417.34 414.37 382.39 438.48C347.86 462.16 300.55 474 240.45 474L25 474L114.5 30L312.7 30C357.88 30 392.62 38.45 416.91 55.37C441.63 71.86 454 95.96 454 127.68C454 156.43 446.32 180.96 430.98 201.25C416.06 221.13 396.24 235.72 371.52 245.02ZM167.57 81.37L138.8 223.45L269.86 223.45C306.09 223.45 334.65 216.26 355.54 201.89C376.85 187.09 387.5 165.73 387.5 137.82C387.5 118.8 379.83 104.63 364.49 95.33C349.57 86.02 327.83 81.37 299.27 81.37L167.57 81.37ZM244.93 422.62C285.42 422.62 316.54 415.22 338.27 400.42C360.44 385.2 371.52 363.63 371.52 335.72C371.52 313.73 363.63 298.09 347.86 288.78C332.52 279.48 309.29 274.83 278.18 274.83L128.57 274.83L99.16 422.62L244.93 422.62Z" fill="#481C03" fill-opacity="1.000000" fill-rule="nonzero"/>
		<path id="VDS" d="M483.77 238.45C485.92 230.9 487 223.12 487 215.09C487 205.8 485.58 197.92 482.75 191.44Q478.5 181.72 471.33 176.93C466.45 173.64 461.08 172 455.22 172Q445.7 172 439.85 176.63Q439.4 176.98 438.97 177.36Q435.81 180.12 433.54 183.48Q431.5 186.49 430.19 189.99Q427.41 197.39 424.63 208.99Q422.14 220.17 419.65 225.68C417.89 229.26 415.26 231.05 411.74 231.05Q409.53 231.05 407.68 230.23Q405.12 229.1 403.25 226.4Q400.03 221.62 400.03 211.75C400.03 202.37 402.71 192.99 408.08 183.6L390.07 176.35Q385.68 183.31 383.34 192.6Q382.74 194.96 382.3 197.36Q381 204.36 381 211.6Q381 225.53 385.24 235.25Q389.49 244.83 396.81 249.62Q399.65 251.52 402.78 252.66Q407.53 254.41 412.91 254.41C419.75 254.41 425.21 252.67 429.31 249.18Q433.21 245.78 435.75 241.56Q437.22 239.12 438.24 236.42Q441.02 229.02 443.81 217.41C444.98 212.38 446.05 208.41 447.03 205.51C448 202.51 449.32 200.09 450.98 198.26Q452.21 196.73 453.8 196.01Q455.24 195.35 456.98 195.35C460.3 195.35 462.98 196.95 465.03 200.14Q467.96 204.93 467.96 214.94Q467.96 223.94 465.03 232.93Q462.11 241.93 457.27 248.46L475.14 256.44Q480.41 249.62 483.77 238.45ZM382.75 365.42L382.75 319.29Q382.75 302.75 389.19 290.12Q393.39 281.62 399.91 275.7Q403.19 272.72 407.06 270.39C414.77 265.65 423.75 263.28 434 263.28Q447.83 263.28 458.58 269.04Q459.78 269.68 460.93 270.39Q464.57 272.58 467.7 275.35Q474.53 281.37 478.94 290.12Q485.24 302.75 485.24 319.29L485.24 365.42L382.75 365.42ZM465.77 320.45Q465.77 307.41 459.54 298.94Q458.5 297.51 457.27 296.22Q454.98 293.79 452.27 292.01Q444.76 287.08 434 287.08Q423.13 287.08 415.66 292.11Q413.06 293.86 410.86 296.22Q409.46 297.68 408.28 299.31Q402.22 307.69 402.22 320.45L402.22 341.92L465.77 341.92L465.77 320.45ZM382.75 371L485.24 414.96L485.24 438.18L382.75 482L382.75 456.6L455.96 425.7L382.75 394.36L382.75 371Z" fill="#FE9E45" fill-opacity="1.000000" fill-rule="evenodd"/>
		<path id="VDS" d="M475.37 256.62Q480.68 249.76 484.06 238.53L484.06 238.53Q484.71 236.26 485.23 233.96Q487.3 224.76 487.3 215.09Q487.3 201.1 483.02 191.32Q478.74 181.52 471.5 176.68Q467.69 174.12 463.5 172.87Q459.54 171.7 455.22 171.7Q445.64 171.7 439.71 176.35Q439.23 176.73 438.78 177.14Q435.58 179.92 433.29 183.3Q431.24 186.35 429.91 189.88Q427.12 197.3 424.33 208.93Q421.85 220.07 419.38 225.55Q418.09 228.16 416.18 229.46Q415.78 229.73 415.35 229.95Q413.74 230.75 411.74 230.75Q409.6 230.75 407.81 229.96Q405.32 228.86 403.5 226.24Q400.33 221.52 400.33 211.75Q400.33 197.76 408.34 183.75L408.51 183.45L389.95 175.98L389.82 176.19Q385.4 183.19 383.05 192.52Q382.45 194.91 382 197.32Q380.7 204.34 380.7 211.6Q380.7 225.6 384.97 235.38Q389.25 245.03 396.64 249.87Q399.52 251.79 402.69 252.95Q407.48 254.71 412.91 254.71Q422.73 254.71 428.85 249.95Q429.18 249.69 429.51 249.41Q433.43 245.98 436 241.73Q437.49 239.26 438.52 236.52Q441.31 229.1 444.1 217.48Q445.85 209.95 447.31 205.6Q448.76 201.17 451.2 198.46L451.21 198.45L451.21 198.45Q452.4 196.98 453.93 196.28Q455.32 195.65 456.98 195.65Q458.68 195.65 460.16 196.24Q462.85 197.3 464.78 200.3Q467.66 205.02 467.66 214.94Q467.66 223.89 464.75 232.84Q461.84 241.79 457.03 248.28L456.81 248.58L475.23 256.81L475.37 256.62ZM419.65 225.68Q422.14 220.17 424.63 208.99Q427.41 197.39 430.19 189.99Q431.5 186.49 433.54 183.48Q435.81 180.12 438.97 177.36Q439.4 176.98 439.85 176.63L439.85 176.63Q445.7 172 455.22 172Q459.49 172 463.41 173.16Q467.57 174.39 471.33 176.93Q478.5 181.72 482.75 191.44Q487 201.16 487 215.09C487 223.12 485.92 230.9 483.77 238.45Q480.41 249.62 475.14 256.44L457.56 248.58L457.27 248.46Q457.37 248.33 457.46 248.21Q462.16 241.76 465.03 232.93Q467.96 223.94 467.96 214.94L467.96 214.94Q467.96 204.93 465.03 200.14C462.98 196.95 460.3 195.35 456.98 195.35Q455.24 195.35 453.8 196.01Q452.21 196.73 450.98 198.26C449.32 200.09 448 202.51 447.03 205.51C446.05 208.41 444.98 212.38 443.81 217.41Q441.02 229.02 438.24 236.42Q437.22 239.12 435.75 241.56Q433.21 245.78 429.31 249.18C425.21 252.67 419.75 254.41 412.91 254.41Q407.53 254.41 402.78 252.66Q399.65 251.52 396.81 249.62Q389.49 244.83 385.24 235.25Q381 225.53 381 211.6Q381 204.36 382.3 197.36L382.3 197.36Q382.74 194.96 383.34 192.6Q385.68 183.31 390.07 176.35L407.8 183.49L408.08 183.6Q408.01 183.73 407.93 183.87Q400.03 197.81 400.03 211.75Q400.03 221.62 403.25 226.4Q405.12 229.1 407.68 230.23Q409.53 231.05 411.74 231.05Q413.79 231.05 415.44 230.24Q418.04 228.96 419.65 225.68ZM388.93 289.99Q382.45 302.67 382.45 319.29L382.45 365.72L485.54 365.72L485.54 319.29Q485.54 302.68 479.21 289.99Q474.77 281.19 467.91 275.13Q464.76 272.34 461.09 270.14Q459.9 269.4 458.68 268.75Q447.87 262.98 434 262.98Q420.11 262.98 409.31 268.75Q408.08 269.41 406.9 270.13Q402.99 272.49 399.68 275.51Q393.13 281.46 388.93 289.99ZM382.75 365.12L382.75 365.42L485.24 365.42L485.24 365.12L485.24 319.29Q485.24 302.75 478.94 290.12Q474.53 281.37 467.7 275.35L467.7 275.35L467.7 275.34Q464.57 272.58 460.93 270.39Q459.78 269.68 458.58 269.04L458.58 269.04Q447.83 263.28 434 263.28C423.75 263.28 414.77 265.65 407.06 270.39Q403.19 272.72 399.91 275.7Q393.39 281.62 389.19 290.12Q382.75 302.75 382.75 319.29L382.75 365.12ZM459.54 298.94Q465.77 307.41 465.77 320.45L465.77 341.92L465.47 341.92L402.22 341.92L402.22 341.62L402.22 320.45Q402.22 307.69 408.28 299.31Q409.46 297.68 410.86 296.22Q413.06 293.86 415.66 292.11Q423.13 287.08 434 287.08Q444.76 287.08 452.27 292.01Q454.98 293.79 457.27 296.22Q458.49 297.51 459.54 298.93L459.54 298.94ZM402.52 341.62L402.52 320.45Q402.52 307.76 408.55 299.45Q409.71 297.85 411.08 296.42Q413.23 294.1 415.78 292.38Q423.2 287.38 434 287.38Q444.69 287.38 452.15 292.29Q454.81 294.04 457.06 296.42L457.06 296.42Q458.24 297.68 459.26 299.06Q465.47 307.47 465.47 320.45L465.47 341.62L402.52 341.62ZM485.54 438.38L485.54 414.77L382.45 370.55L382.45 394.56L455.19 425.7L382.45 456.41L382.45 482.45L485.54 438.38ZM455.57 425.54L455.96 425.7L455.57 425.86L382.75 456.6L382.75 481.67L382.75 482L383.05 481.87L485.24 438.18L485.24 414.96L383.05 371.13L382.75 371L382.75 371.33L382.75 394.36L455.57 425.54Z" fill="#FFFFFF" fill-opacity="1.000000" fill-rule="evenodd"/>
	</g>
</svg>
