<?xml version="1.0" encoding="utf-8"?><svg xmlns="http://www.w3.org/2000/svg" xmlns:xlink="http://www.w3.org/1999/xlink"><symbol viewBox="0 0 9 15" id="btn-arrow" xmlns="http://www.w3.org/2000/svg"><path d="M1.15479 1.23392L7.04741 7.29494L1.15479 13.356" stroke-width="2" stroke-miterlimit="10" stroke-linecap="round" stroke-linejoin="round"/></symbol><symbol viewBox="0 0 40 30" id="burger" xmlns="http://www.w3.org/2000/svg"><rect y="12" width="40" height="6"/><rect y="24" width="40" height="6"/><rect width="40" height="6"/></symbol><symbol viewBox="0 0 174 152" id="dog-popup-bg" xmlns="http://www.w3.org/2000/svg"><path d="M0.500019 64.8813C0.500019 64.8813 -7.49998 27.8671 47.5 5.36707C102.5 -17.1329 209 49.8671 162.5 98.3671C116 146.867 90.5 165.367 47.5 141.367C4.50002 117.367 0.500019 64.8813 0.500019 64.8813Z"/></symbol><symbol viewBox="0 0 55 52" id="dog-popup-play" xmlns="http://www.w3.org/2000/svg"><path d="M39.2031 25.2192C39.1707 25.5329 38.9653 25.8759 38.4915 26.2245C33.8454 29.6429 29.1994 33.0612 24.5533 36.4795C23.5614 37.2093 21.2077 37.3792 21.2077 35.6621C21.2077 29.3369 21.2077 23.0117 21.2077 16.6865C21.2077 15.1327 23.734 14.7498 24.7451 15.3824C29.3911 18.2893 34.0372 21.1962 38.6832 24.103C39.2152 24.4359 39.332 24.8349 39.2031 25.2192ZM54.9999 30.6107C53.5276 63.3484 -5.96613 56.5663 0.489601 22.1041C3.19833 7.64391 16.1474 0.0391458 30.375 0.95552C46.39 1.98707 54.7086 15.4955 54.9986 30.3941C54.9993 30.4316 54.9729 30.4628 54.9676 30.499C54.9735 30.5395 55.0019 30.5654 54.9999 30.6107ZM52.0145 31.0344C51.7728 20.4885 47.7398 9.09901 37.3337 4.56613C23.5417 -1.44157 7.29212 5.644 3.78721 20.2453C0.652332 33.3049 7.62377 44.8837 20.3796 49.0718C33.9773 53.5364 51.2715 46.511 52.0145 31.0344Z"/></symbol><symbol viewBox="0 0 30 30" id="facebook" xmlns="http://www.w3.org/2000/svg"><g clip-path="url(#eclip0_27_1487)"><path d="M18.6319 7.36726C18.673 7.32103 18.8649 7.16997 19.6187 7.16997L22.0902 7.16905C22.8942 7.16905 23.5481 6.51628 23.5481 5.71382V1.40259C23.5481 0.601503 22.8952 -0.0512695 22.0925 -0.0526428L18.4214 -0.0585938C16.1556 -0.0585938 14.2295 0.687334 12.8512 2.09885C11.4791 3.50396 10.7538 5.46548 10.7538 7.77101V10.0962H7.94538C7.14135 10.0962 6.4873 10.749 6.4873 11.5515V16.1946C6.4873 16.997 7.14135 17.6498 7.94538 17.6498H10.7538V28.4862C10.7538 29.2887 11.4078 29.9415 12.2118 29.9415H17.0255C17.8295 29.9415 18.4835 29.2887 18.4835 28.4862V17.65H21.9164C22.7204 17.65 23.3742 16.997 23.3742 16.195L23.3761 11.5517C23.3761 11.0246 23.0887 10.5368 22.6259 10.2789C22.4115 10.1594 22.162 10.0962 21.9047 10.0962H18.4835V8.25922C18.4835 7.66046 18.5643 7.44371 18.6319 7.36726Z"/></g><defs><clipPath id="eclip0_27_1487"><rect width="30" height="30"/></clipPath></defs></symbol><symbol viewBox="0 0 29 36" id="instagram" xmlns="http://www.w3.org/2000/svg"><g clip-path="url(#fclip0_27_1489)"><path d="M24.1667 0H4.83333C3.55145 0 2.32208 0.505713 1.41565 1.40589C0.509225 2.30606 0 3.52696 0 4.8L0 24C0 25.273 0.509225 26.4939 1.41565 27.3941C2.32208 28.2943 3.55145 28.8 4.83333 28.8H24.1667C25.4485 28.8 26.6779 28.2943 27.5843 27.3941C28.4908 26.4939 29 25.273 29 24V4.8C29 3.52696 28.4908 2.30606 27.5843 1.40589C26.6779 0.505713 25.4485 0 24.1667 0V0ZM26.5833 24C26.5833 24.6365 26.3287 25.247 25.8755 25.6971C25.4223 26.1471 24.8076 26.4 24.1667 26.4H4.83333C4.19239 26.4 3.5777 26.1471 3.12449 25.6971C2.67128 25.247 2.41667 24.6365 2.41667 24V4.8C2.41667 4.16348 2.67128 3.55303 3.12449 3.10294C3.5777 2.65286 4.19239 2.4 4.83333 2.4H24.1667C24.8076 2.4 25.4223 2.65286 25.8755 3.10294C26.3287 3.55303 26.5833 4.16348 26.5833 4.8V24Z"/><path d="M14.5 7.19995C13.0661 7.19995 11.6644 7.62222 10.4721 8.41337C9.27986 9.20452 8.35061 10.329 7.80188 11.6446C7.25314 12.9603 7.10957 14.4079 7.38931 15.8046C7.66905 17.2013 8.35955 18.4842 9.37348 19.4911C10.3874 20.4981 11.6792 21.1838 13.0856 21.4616C14.492 21.7394 15.9497 21.5968 17.2745 21.0519C18.5992 20.5069 19.7315 19.5841 20.5282 18.4001C21.3248 17.216 21.75 15.824 21.75 14.4C21.75 12.4904 20.9862 10.659 19.6265 9.30878C18.2669 7.95852 16.4228 7.19995 14.5 7.19995ZM14.5 19.1999C13.5441 19.1999 12.6096 18.9184 11.8147 18.391C11.0199 17.8636 10.4004 17.1139 10.0346 16.2368C9.66876 15.3597 9.57305 14.3946 9.75954 13.4635C9.94604 12.5324 10.4064 11.6771 11.0823 11.0058C11.7583 10.3345 12.6195 9.87739 13.5571 9.69218C14.4946 9.50697 15.4665 9.60203 16.3496 9.96533C17.2328 10.3286 17.9877 10.9439 18.5188 11.7332C19.0499 12.5226 19.3333 13.4506 19.3333 14.4C19.3333 15.673 18.8241 16.8939 17.9177 17.7941C17.0113 18.6942 15.7819 19.1999 14.5 19.1999Z"/><path d="M22.3541 8.40005C23.3551 8.40005 24.1666 7.59416 24.1666 6.60005C24.1666 5.60594 23.3551 4.80005 22.3541 4.80005C21.3531 4.80005 20.5416 5.60594 20.5416 6.60005C20.5416 7.59416 21.3531 8.40005 22.3541 8.40005Z"/></g><defs><clipPath id="fclip0_27_1489"><rect width="29" height="36"/></clipPath></defs></symbol><symbol viewBox="0 0 30 22" id="mail" xmlns="http://www.w3.org/2000/svg"><path d="M29.979 0.897C29.972 0.829 29.96 0.764 29.939 0.698C29.918 0.633 29.891 0.574 29.857 0.515C29.839 0.484 29.835 0.448 29.814 0.418C29.798 0.395 29.773 0.384 29.755 0.363C29.71 0.31 29.66 0.266 29.606 0.224C29.556 0.185 29.508 0.149 29.452 0.12C29.397 0.0919999 29.34 0.0740002 29.28 0.0560002C29.213 0.0360002 29.147 0.0209999 29.077 0.0149999C29.05 0.0129999 29.027 0 29 0H1C0.973 0 0.95 0.0129998 0.923 0.0159998C0.853 0.0209998 0.787 0.0370002 0.719 0.0570002C0.66 0.0750002 0.603 0.0919999 0.549 0.12C0.492 0.149 0.444 0.186 0.393 0.226C0.339 0.268 0.29 0.311 0.245 0.364C0.227 0.385 0.202 0.396 0.186 0.419C0.165 0.449 0.16 0.484 0.143 0.516C0.109 0.574 0.082 0.633 0.061 0.699C0.04 0.765 0.028 0.829 0.021 0.897C0.017 0.933 0 0.964 0 1V21C0 21.552 0.448 22 1 22H29C29.552 22 30 21.552 30 21V1C30 0.964 29.983 0.933 29.979 0.897ZM25.879 2L15 9.771L4.121 2H25.879ZM2 20V2.943L14.419 11.814C14.593 11.938 14.796 12 15 12C15.204 12 15.407 11.938 15.581 11.814L28 2.943V20H2Z"/></symbol><symbol viewBox="0 0 87 95" id="services-item1" xmlns="http://www.w3.org/2000/svg"><path d="M56.8032 28.2852C56.5756 27.1977 55.9536 26.3809 55.0984 26.0436C55.0372 26.0195 54.9731 26.0167 54.9111 25.9978C55.5239 22.9628 57.2522 11.9293 51.59 5.47231C48.3083 1.7303 43.1874 0.24933 36.3775 1.0661C36.2523 1.01104 36.1164 0.978919 35.9754 0.97433C30.6262 0.786197 26.5328 2.39164 23.8492 5.7396C18.5916 12.2968 20.4953 23.3614 21.0435 25.9841C20.9629 26.0067 20.88 26.0123 20.8008 26.0436C19.9449 26.3809 19.3236 27.1977 19.0953 28.2852C18.892 29.2539 19.0053 30.373 19.4142 31.4352C20.163 33.3837 21.6781 34.6283 23.1332 34.6283C23.2888 34.6283 23.4438 34.6135 23.597 34.5843C24.8312 38.5621 26.8898 41.8697 30.2915 43.8998V47.9777H28.5244V59.4791H47.3744V47.9777H45.6065V43.9253C49.0142 41.8977 51.0747 38.5801 52.308 34.5861C52.4593 34.6144 52.6121 34.6283 52.7659 34.6283C54.2193 34.6283 55.735 33.3837 56.4849 31.4358C56.8927 30.373 57.006 29.2539 56.8032 28.2852ZM21.0353 30.7957C20.7526 30.0604 20.666 29.2786 20.7974 28.6511C20.9016 28.1555 21.1327 27.8033 21.4317 27.6852C21.5127 27.6536 21.6011 27.6382 21.6951 27.6382C21.8649 27.6382 22.053 27.6901 22.2472 27.7869C22.4465 29.5423 22.7296 31.2444 23.1238 32.8608C22.458 32.8473 21.5258 32.0718 21.0353 30.7957ZM46.6048 49.7398C44.8747 51.5816 41.6505 52.8232 37.9494 52.8232C34.2482 52.8232 31.024 51.5816 29.2939 49.7398H31.1615C31.6418 49.7398 32.0315 49.3451 32.0315 48.8587V44.7795C33.7268 45.4857 35.6972 45.9267 37.9935 46.0442C40.2526 45.9279 42.1933 45.4934 43.8671 44.7998V48.8587C43.8671 49.3451 44.2568 49.7398 44.7371 49.7398H46.6048ZM51.9457 26.854C51.8885 27.3957 51.8308 27.9368 51.7598 28.4575C51.5787 29.7847 51.3473 31.0377 51.0651 32.2209C50.9586 32.6673 50.8386 33.096 50.7162 33.5209C49.6496 37.2216 47.9699 40.1045 45.3758 41.9482C44.9927 42.2205 44.5779 42.4574 44.1543 42.6843C42.4494 43.5976 40.4278 44.1584 37.9935 44.2845C35.5646 44.1595 33.5433 43.6095 31.8369 42.712C31.3839 42.4737 30.9449 42.2198 30.5376 41.9307C27.938 40.0853 26.2543 37.2074 25.186 33.5144C25.063 33.0894 24.9426 32.6604 24.8358 32.2137C24.5533 31.0332 24.3214 29.7833 24.1402 28.4594C24.0689 27.9386 24.0108 27.3973 23.9534 26.8554C23.7998 25.4054 23.6903 23.8859 23.6237 22.2942C23.8273 21.002 24.1254 19.9294 24.4807 19.0506C25.016 18.9588 26.1709 18.7059 27.5308 18.0715C27.7449 18.3715 28.1097 18.5619 28.4801 18.5332C28.6727 18.5235 31.2362 18.3749 33.9459 17.2983C33.9323 17.4228 33.9397 17.5507 33.9691 17.6774C34.0853 18.1707 34.5157 18.5229 35.0164 18.5344C35.2492 18.5418 39.8547 18.5992 42.6969 15.3074C43.7935 17.9677 46.2556 22.3251 51.2774 25.0605L52.026 26.1052C52.0025 26.3597 51.9722 26.6039 51.9457 26.854ZM54.8627 30.7957C54.3738 32.0694 53.4441 32.8429 52.7799 32.8599C53.1722 31.2436 53.4539 29.5415 53.6525 27.7862C53.8463 27.6897 54.0339 27.6382 54.2034 27.6382C54.2975 27.6382 54.3858 27.6536 54.4663 27.6852C54.8763 27.8469 55.0406 28.3597 55.1018 28.6511C55.2332 29.2786 55.1459 30.0604 54.8627 30.7957ZM35.9754 33.0894V30.6196C35.9754 30.1332 36.365 29.7386 36.8454 29.7386C37.3257 29.7386 37.7154 30.1332 37.7154 30.6196V32.8898H39.0532C39.5335 32.8898 39.9232 33.2844 39.9232 33.7708C39.9232 34.2572 39.5335 34.6518 39.0532 34.6518H37.5182C36.6675 34.6518 35.9754 33.9509 35.9754 33.0894ZM31.8181 27.4239C31.8181 28.3715 31.0595 29.1396 30.1238 29.1396C29.1881 29.1396 28.4296 28.3715 28.4296 27.4239C28.4296 26.4764 29.1881 25.7083 30.1238 25.7083C31.0595 25.7083 31.8181 26.4764 31.8181 27.4239ZM47.4691 27.4239C47.4691 28.3715 46.7105 29.1396 45.7749 29.1396C44.8392 29.1396 44.0806 28.3715 44.0806 27.4239C44.0806 26.4764 44.8392 25.7083 45.7749 25.7083C46.7105 25.7083 47.4691 26.4764 47.4691 27.4239ZM42.2081 38.5166C42.2081 39.9391 40.0082 40.4461 37.9493 40.4461C35.891 40.4461 33.691 39.9391 33.691 38.5166C33.691 38.0302 34.0807 37.6356 34.561 37.6356C34.949 37.6356 35.2775 37.8926 35.3897 38.2482C35.6808 38.4225 36.5961 38.6841 37.9493 38.6841C39.303 38.6841 40.2183 38.4225 40.5094 38.2476C40.6216 37.8926 40.9501 37.6356 41.3381 37.6356C41.8184 37.6356 42.2081 38.0302 42.2081 38.5166ZM85.8531 65.996C85.6027 65.5494 85.214 65.2181 84.751 65.0275C84.8236 64.5428 84.7519 64.0329 84.4948 63.5744C84.2446 63.128 83.8561 62.7969 83.3926 62.6061C83.4651 62.1214 83.3934 61.6114 83.1366 61.1528C82.8795 60.6941 82.4832 60.3712 82.0344 60.1869C82.1073 59.7021 82.036 59.1919 81.7795 58.7334C81.4838 58.2069 81.0046 57.8295 80.428 57.6689C79.8571 57.5094 79.2522 57.5851 78.7322 57.8834L77.8505 58.3907C77.6825 58.1129 77.4605 57.8618 77.1882 57.6535V56.6904H82.1182C82.5985 56.6904 82.9882 56.2957 82.9882 55.8088C82.9882 55.3224 82.5985 54.9278 82.1182 54.9278H77.1882V54.0467H82.1182C82.5985 54.0467 82.9882 53.6521 82.9882 53.1657C82.9882 52.6793 82.5985 52.2847 82.1182 52.2847H77.1882V51.4037H82.1182C82.5985 51.4037 82.9882 51.0091 82.9882 50.5227C82.9882 50.0363 82.5985 49.6417 82.1182 49.6417H77.1882V48.7607H82.1182C82.5985 48.7607 82.9882 48.366 82.9882 47.8797C82.9882 47.3933 82.5985 46.9986 82.1182 46.9986H77.1882L77.1939 46.1176H82.1182C82.5985 46.1176 82.9882 45.723 82.9882 45.2366C82.9882 44.7502 82.5985 44.3556 82.1182 44.3556H77.1939C76.2151 44.3556 75.4482 45.2584 75.4482 46.4113V47.8797V50.5227V50.6558C75.3738 49.6549 75.0077 48.6495 74.3618 47.7839C72.7725 45.6519 70.0504 45.0078 68.2968 46.3499C67.3827 47.049 66.9195 48.1526 66.8996 49.3492C65.7578 49.0409 64.5828 49.19 63.6681 49.8895C62.7868 50.5628 62.2702 51.6555 62.2509 52.8864C62.2339 54.0261 62.6304 55.1991 63.369 56.1902C64.1076 57.1802 65.1136 57.888 66.2011 58.1828C66.5647 58.2815 66.9283 58.3296 67.284 58.3296C68.077 58.3296 68.8269 58.0887 69.4352 57.623C69.493 57.5788 69.5341 57.5206 69.5884 57.4733L72.317 60.7873L71.3311 62.938C71.2557 63.07 71.1872 63.2046 71.1263 63.3453L65.39 66.6407L55.6025 50.3621C55.3623 49.963 55.07 49.6203 54.7559 49.3061C54.2377 48.6289 53.4897 48.1467 52.6222 47.9913C51.7772 47.7078 50.8765 47.6173 49.9844 47.7687V59.5757C50.1969 59.6425 50.3937 59.7403 50.5648 59.8703C50.8856 60.114 51.1205 60.4571 51.2151 60.8614L51.4344 61.792L55.4944 79.0217V71.6424L58.7551 77.0661C59.7905 78.7879 61.6041 79.7447 63.4664 79.7447C64.3886 79.7447 65.3231 79.5095 66.1807 79.0162L76.6263 73.0143C76.6694 72.9896 76.7027 72.955 76.7449 72.9293C76.827 72.9344 76.9085 72.9455 76.9911 72.9455C77.6708 72.9455 78.3595 72.7723 78.9916 72.4086L80.9554 71.2792L81.0753 71.4249C81.4719 71.9062 82.1714 71.9876 82.6654 71.6098L83.0247 71.335L83.4035 71.0454L83.7624 70.771C84.123 70.4953 84.2601 70.0255 84.1616 69.5719L85.0148 69.0807C85.5336 68.7825 85.9063 68.2972 86.0649 67.7133C86.2235 67.1306 86.1476 66.5203 85.8531 65.996ZM80.791 61.927L80.9503 61.8353C81.025 61.7929 81.1089 61.7699 81.1927 61.7699C81.2369 61.7699 81.2811 61.7768 81.3252 61.7883C81.4532 61.8239 81.5597 61.9076 81.6243 62.0235C81.7591 62.2632 81.6753 62.5707 81.4385 62.7072L81.2799 62.7984L80.1334 63.458L79.1616 64.0172C79.0471 64.0815 78.9146 64.0975 78.7866 64.0642C78.6597 64.0287 78.5532 63.9449 78.4887 63.8291C78.3539 63.5882 78.4366 63.2819 78.6733 63.1454L79.5702 62.6294L80.791 61.927ZM77.998 60.5553L78.0197 60.5081C78.0358 60.4729 78.0413 60.4358 78.0553 60.4002C78.0715 60.359 78.0831 60.317 78.0966 60.2753L79.1825 59.6504L79.592 59.4148C79.6679 59.3724 79.7506 59.3495 79.8356 59.3495C79.8798 59.3495 79.9239 59.3552 79.967 59.3678C80.095 59.4034 80.2015 59.4871 80.2661 59.603C80.35 59.7522 80.3409 59.924 80.2712 60.0681C80.2289 60.1555 80.1696 60.2352 80.0803 60.2867L79.4553 60.6462L78.569 61.1561L77.8033 61.5967C77.7086 61.6509 77.6018 61.6626 77.4947 61.6486L77.998 60.5553ZM68.0373 55.7485C67.6171 56.0675 67.0824 55.99 66.8003 55.9132C66.218 55.7554 65.6426 55.3402 65.22 54.774C64.7986 54.2079 64.5619 53.5334 64.5709 52.9231C64.5755 52.6283 64.6457 52.0851 65.066 51.7639C65.2767 51.6033 65.5361 51.527 65.817 51.527C66.499 51.527 67.3123 51.9738 67.8821 52.7384C68.6876 53.8185 68.7578 55.1968 68.0373 55.7485ZM69.8487 51.2345C69.0444 50.155 68.973 48.7762 69.6946 48.2244C69.9053 48.0638 70.1636 47.9875 70.4457 47.9875C71.1277 47.9875 71.9399 48.4349 72.5108 49.1995C72.9334 49.7656 73.1701 50.4401 73.1611 51.0498C73.1565 51.3452 73.0863 51.8878 72.666 52.209C72.2457 52.5279 71.7111 52.4505 71.429 52.3736C70.8467 52.2159 70.2712 51.8006 69.8487 51.2345ZM72.0889 58.3126C71.692 57.7804 71.7964 57.0232 72.3219 56.6214C72.8474 56.2196 73.5951 56.3252 73.992 56.8574C74.1307 57.0435 74.187 57.2575 74.2066 57.4737C73.8805 57.6879 73.6065 57.977 73.4352 58.348L73.2459 58.7607C72.8194 58.8362 72.3678 58.6867 72.0889 58.3126ZM78.9277 70.4184L78.1318 70.876C77.0205 71.5184 75.5966 71.1204 74.9622 69.9927L72.8121 66.1612C72.5054 65.6144 72.4271 64.9795 72.5922 64.3728L72.6019 64.3517L72.8875 63.7286L75.0132 59.0902C75.0744 58.9577 75.2415 58.8712 75.4482 58.8514C75.6012 58.8367 75.7735 58.8544 75.9523 58.9388C76.1314 59.0234 76.2558 59.146 76.343 59.2742C76.3627 59.3033 76.386 59.3303 76.4009 59.3598C76.4744 59.5059 76.492 59.6541 76.4417 59.7647L74.6613 63.6346L74.3063 64.4061C74.2723 64.4799 74.2648 64.5572 74.2521 64.6337C74.1889 65.0144 74.3647 65.4053 74.7277 65.5762C74.8467 65.6324 74.9713 65.6588 75.0936 65.6588C75.2178 65.6588 75.3365 65.6241 75.4482 65.5733V69.7587C75.4482 70.2451 75.8379 70.6397 76.3182 70.6397C76.7985 70.6397 77.1882 70.2451 77.1882 69.7587V66.7038L79.2871 69.253L79.8228 69.9037L78.9277 70.4184ZM80.5198 66.4377C80.4043 66.5019 80.2695 66.5214 80.1448 66.4847C80.018 66.4492 79.9115 66.3654 79.8469 66.2496C79.7121 66.0087 79.7948 65.7024 80.0316 65.5659L81.1346 64.9313L82.1491 64.3475L82.3085 64.2558C82.3833 64.2134 82.4671 64.1904 82.5509 64.1904C82.5951 64.1904 82.6393 64.1973 82.6835 64.2088C82.8104 64.2443 82.9168 64.3281 82.9814 64.444C83.1162 64.6849 83.0335 64.9911 82.7968 65.1277L82.638 65.219L81.6977 65.7599L80.5198 66.4377ZM84.3872 67.2464C84.3521 67.3749 84.2694 67.4828 84.155 67.5481C84.155 67.5481 84.155 67.5481 84.1539 67.5481L83.7459 67.7831L83.2621 68.0618L81.8792 68.8582C81.7758 68.9188 81.6606 68.9294 81.5514 68.9099C81.4104 68.8848 81.28 68.8051 81.204 68.6701C81.0692 68.4292 81.153 68.1229 81.3898 67.9864L82.6989 67.2332L83.0517 67.0301L83.6668 66.6763C83.7415 66.6339 83.8254 66.6109 83.9092 66.6109C83.9224 66.6109 83.9353 66.6153 83.9485 66.6164C83.9794 66.6192 84.0104 66.6212 84.0406 66.6293C84.1686 66.6648 84.2739 66.7486 84.3408 66.8667C84.4053 66.9826 84.4223 67.1168 84.3872 67.2464ZM55.3245 92.7509L54.8401 81.3392C54.8378 81.3094 54.8344 81.2796 54.8265 81.2497L50.0868 61.1333C50.0693 61.0578 50.0324 60.9898 49.9844 60.9282C49.8551 60.7622 49.6311 60.6538 49.3799 60.6538H26.5186C26.2674 60.6538 26.0436 60.7628 25.9144 60.9283C25.8664 60.9897 25.8294 61.0573 25.8118 61.1321L21.649 78.802L21.1233 78.5019L21.0013 78.4323C20.8651 78.3566 20.728 78.2947 20.591 78.2319L24.4644 61.7904L24.6268 61.1011L24.6835 60.8602C24.7784 60.456 25.0134 60.1132 25.3343 59.8698C25.5053 59.7401 25.702 59.6423 25.9144 59.5756V47.9292V47.8116C23.8846 47.146 21.5688 47.7093 20.0735 49.4369L1.3685 71.0217C0.330844 72.2193 -0.151734 73.8082 0.0419769 75.3889C0.235688 76.9708 1.08813 78.3922 2.3835 79.2961L13.1135 86.7847C13.4484 87.0186 13.8035 87.1945 14.1652 87.344C14.6046 87.8547 15.1276 88.2911 15.7173 88.6236L19.498 90.7565L20.0649 91.0763L20.4043 91.2678L20.6037 91.3802C20.6134 91.3857 20.624 91.3872 20.6338 91.3925L20.575 92.7522L20.5204 94.0152C20.513 94.1873 20.5974 94.3146 20.6699 94.3915C20.8081 94.5383 21.016 94.6221 21.2392 94.6221H54.6588C54.882 94.6221 55.0904 94.5383 55.2286 94.3915C55.3011 94.3146 55.3861 94.1873 55.3782 94.0152L55.3245 92.7509ZM13.7371 73.6671L20.4044 65.9735V78.1451C20.1854 78.0541 19.9661 77.9829 19.747 77.923C19.6188 77.8149 19.5067 77.6938 19.3666 77.596L13.7371 73.6671ZM26.7933 84.1015C26.7146 84.2449 26.5288 84.2989 26.3906 84.2186C26.3901 84.2186 26.3901 84.2186 26.3901 84.2186L22.4354 81.9874C22.2161 81.8638 21.9579 81.8713 21.726 81.9626C21.5142 82.0459 21.3239 82.1983 21.212 82.4003C21.0987 82.6045 21.0704 82.8454 21.1332 83.0714C21.1961 83.2962 21.3451 83.4867 21.5467 83.6014L21.55 83.6033L26.2841 86.2754C26.3759 86.327 26.411 86.4108 26.4235 86.4555C26.4365 86.5002 26.4501 86.5897 26.398 86.6838C26.3476 86.7767 26.2655 86.8111 26.2207 86.8249C26.176 86.8375 26.0865 86.8513 25.9958 86.7997L21.3698 84.1885L21.2584 84.1256C21.1626 84.0716 21.0578 84.0478 20.9519 84.039C20.7622 84.0231 20.5741 84.0825 20.4044 84.1836C20.3886 84.193 20.3722 84.2005 20.357 84.2107C20.2273 84.2975 20.11 84.4026 20.0338 84.5398C19.9211 84.7439 19.8928 84.986 19.9557 85.2108C20.0095 85.4033 20.1356 85.5609 20.2946 85.6765C20.3214 85.696 20.3401 85.7245 20.3692 85.7408L20.4044 85.7607L20.4455 85.7839L20.8662 86.0212L24.3238 87.972C24.4161 88.0237 24.4513 88.1074 24.4637 88.1533C24.4767 88.198 24.4903 88.2864 24.4382 88.3804C24.3873 88.4733 24.3057 88.5089 24.2609 88.5215C24.2173 88.5341 24.129 88.5491 24.0361 88.4963L20.8372 86.692L20.4044 86.4478L20.2652 86.3693L20.0248 86.2337L19.6982 86.0495L19.6391 86.0161C19.3632 85.8613 18.9418 85.9209 18.6728 86.0907C18.4117 86.2559 18.2565 86.5484 18.2638 86.8593C18.268 87.0238 18.3218 87.1768 18.4067 87.3106C18.4829 87.4305 18.5832 87.5356 18.7102 87.6072L19.6103 88.1151L20.1772 88.4351L20.4044 88.5633L20.7479 88.757L21.7393 89.3165C21.8305 89.3681 21.865 89.4519 21.8781 89.4966C21.8905 89.5413 21.9041 89.6308 21.8531 89.7237C21.775 89.866 21.5881 89.9222 21.4504 89.8408L20.7188 89.428L20.4044 89.2505L20.1487 89.1063L19.5818 88.7864L17.5107 87.6179L16.5646 87.0841C15.7547 86.6276 15.1169 85.8968 14.7691 85.0262C14.2979 83.8492 14.3511 82.5621 14.9107 81.5835C15.5921 80.3928 16.9033 79.5129 18.3624 79.5129C18.9537 79.5129 19.5696 79.6617 20.1773 79.988C20.1948 79.9974 20.2123 80.0034 20.2298 80.0131L20.4044 80.1128L20.7036 80.2835L21.2292 80.5837L21.5413 80.7618L26.6778 83.6943C26.7701 83.7459 26.8052 83.8308 26.8177 83.8756C26.8307 83.9203 26.8443 84.0098 26.7933 84.1015ZM48.303 79.7329C48.2781 81.2806 46.8035 81.9562 46.0516 80.761L45.2953 79.5603C45.0941 80.2727 44.788 80.9417 44.3919 81.5513C44.395 81.6459 44.4043 81.7387 44.4043 81.8343C44.4043 85.8279 41.5146 89.0657 37.9494 89.0657C34.3841 89.0657 31.4944 85.8279 31.4944 81.8343C31.4944 81.7387 31.5037 81.6459 31.5068 81.5513C31.1101 80.9417 30.8039 80.2727 30.6028 79.5603L29.8471 80.761C29.0952 81.9562 27.6206 81.2806 27.5951 79.7329C27.5833 79.0101 27.5579 78.2598 27.5106 77.5244C27.3461 74.9414 30.8182 73.7304 32.3829 73.316C33.775 72.3031 35.7501 71.8472 37.9494 71.8472C40.148 71.8472 42.1237 72.3031 43.5158 73.316C45.0805 73.7304 48.5526 74.9414 48.388 77.5244C48.3409 78.2598 48.3154 79.0101 48.303 79.7329ZM35.3042 85.0966C35.3042 84.0085 36.4885 83.1264 37.9494 83.1264C39.4103 83.1264 40.5945 84.0085 40.5945 85.0966C40.5945 86.1846 39.4103 87.0667 37.9494 87.0667C36.4885 87.0667 35.3042 86.1846 35.3042 85.0966Z"/></symbol><symbol viewBox="0 0 64 65" id="services-item2" xmlns="http://www.w3.org/2000/svg"><path d="M45.8776 28.9192L51.9217 22.7986C52.6404 23.0371 53.3934 23.1985 54.1906 23.1985H56.6436C60.7081 23.1985 64.0025 19.8625 64.0025 15.7465C64.0025 11.6305 60.7081 8.29452 56.6436 8.29452H55.839V7.47728C55.839 3.36128 52.5447 0.0252686 48.4802 0.0252686C44.4156 0.0252686 41.1213 3.36128 41.1213 7.47728V9.96128C41.1213 10.7686 41.2808 11.5312 41.5162 12.259L35.4722 18.3796L45.8776 28.9192Z"/><path d="M18.1249 35.9437L12.0808 42.0643C11.3621 41.8258 10.609 41.6644 9.81181 41.6644H7.35886C3.29432 41.6644 0 45.0004 0 49.1164C0 53.2324 3.29432 56.5684 7.35886 56.5684H8.16343V57.3832C8.16343 61.4992 11.4577 64.8352 15.5223 64.8352C19.5868 64.8352 22.8811 61.4992 22.8811 57.3832V54.8992C22.8811 54.0919 22.7217 53.3293 22.4862 52.6015L28.5303 46.4809L18.1249 35.9437Z"/><path d="M56.6436 41.6646H54.1906C53.3934 41.6646 52.6404 41.8261 51.9217 42.0645L22.4887 12.259C22.7242 11.5312 22.8836 10.7686 22.8836 9.96128V7.47728C22.8836 3.36128 19.5893 0.0252686 15.5247 0.0252686C11.4602 0.0252686 8.16588 3.36128 8.16588 7.47728V8.29203H7.35886C3.29432 8.29203 0 11.628 0 15.744C0 19.86 3.29432 23.196 7.35886 23.196H9.81181C10.609 23.196 11.3621 23.0346 12.0808 22.7961L41.5138 52.6017C41.2783 53.3295 41.1189 54.0921 41.1189 54.8994V57.3834C41.1189 61.4994 44.4132 64.8354 48.4777 64.8354C52.5423 64.8354 55.8366 61.4994 55.8366 57.3834V56.5686H56.6411C60.7057 56.5686 64 53.2326 64 49.1166C64 45.0006 60.7081 41.6646 56.6436 41.6646Z"/></symbol><symbol viewBox="0 0 107 75" id="services-item3" xmlns="http://www.w3.org/2000/svg"><path d="M74.8759 46.3167C72.3759 45.9097 69.903 47.2566 68.8582 49.5922C68.6557 50.0453 68.5179 50.5148 68.4387 50.9893C71.0188 49.7162 73.2739 48.1815 75.2207 46.3728L74.8759 46.3167Z"/><path d="M77.1953 23.6913C81.8826 20.6027 83.2102 14.2514 80.1605 9.50512C77.1108 4.75889 70.8388 3.41508 66.1514 6.50363C61.4641 9.59218 60.1366 15.9435 63.1862 20.6898C66.2359 25.436 72.508 26.7798 77.1953 23.6913Z"/><path d="M95.7812 26.2799C91.4019 20.7887 85.4541 20.7258 82.1686 22.9656C78.8841 25.2042 79.124 30.8919 81.8671 34.7107C81.9917 34.9213 82.1241 35.1405 82.2537 35.3575C83.199 32.453 83.3322 30.3449 83.3335 30.3157C83.4299 27.8516 85.4036 25.928 87.828 25.928C87.8843 25.928 87.9405 25.9289 87.9968 25.9312C90.4769 26.0233 92.4206 28.1415 92.3292 30.6535V30.6612L92.3265 30.7018C92.2527 32.1084 91.7773 37.1648 88.7624 43.1739C88.4879 43.7254 88.1642 44.3298 87.7929 44.9698C88.4249 46.1923 89.0325 47.4412 89.5866 48.7098L85.7475 48.0853C83.1508 51.6078 79.1785 55.604 73.2626 58.735L90.4261 73.1215C91.4758 74.0017 92.7469 74.4306 94.0108 74.4306C95.629 74.4306 97.235 73.7268 98.3482 72.3662C100.329 69.9417 99.9952 66.3503 97.6014 64.3443L93.4743 60.8833L94.8093 61.1011C95.223 61.1681 95.6322 61.1846 96.0341 61.1609C97.0037 61.2078 98.1438 60.8646 99.546 60.37C103.441 58.9953 107.857 56.5717 106.709 49.1861C104.392 39.2648 101.757 33.8665 95.7812 26.2799Z"/><path d="M87.9605 42.76C91.2013 36.301 91.4106 30.9552 91.43 30.6193C91.5029 28.6064 89.9522 26.9153 87.9645 26.8419C85.9799 26.7672 84.3122 28.3338 84.2344 30.3421L84.2339 30.3417C84.2281 30.5737 83.9278 34.9701 81.2978 39.9243C78.6398 44.8859 73.8614 50.4606 64.1878 53.7219C62.2991 54.3528 61.2729 56.4144 61.8972 58.3275C62.3964 59.86 63.8043 60.8318 65.3163 60.8318C65.6903 60.8318 66.0707 60.772 66.4452 60.6472C78.2725 56.7276 84.7502 49.2098 87.9605 42.76Z"/><path d="M40.5335 60.1042C42.1701 60.4188 44.1398 60.9384 44.6606 61.4968C46.0628 62.995 46.7478 66.0896 48.5659 66.3065C49.8361 66.4579 50.2822 66.4301 51.8558 65.4017C53.4092 64.3844 51.9341 60.4233 51.5632 58.9013C51.0375 56.7417 52.2911 54.3696 52.3104 54.2246C52.3262 54.1043 53.406 51.8111 56.5276 52.6817C57.6178 52.988 56.9795 50.9473 55.2722 49.9277C53.2422 48.717 51.7734 49.2813 50.2894 50.4601C47.4239 48.2393 42.9349 48.6728 40.3827 49.64C39.9749 51.3234 39.8169 52.952 39.8169 54.4503C39.8155 56.728 40.1756 58.7031 40.5335 60.1042ZM47.8092 55.3131C48.4763 54.8523 49.3864 55.0269 49.842 55.7024C50.2966 56.3784 50.1242 57.3005 49.4571 57.7604C48.7882 58.2213 47.879 58.0471 47.4235 57.3712C46.9693 56.6956 47.1408 55.7735 47.8092 55.3131Z"/><path d="M38.5431 49.5885C37.8787 49.598 37.2459 49.5784 36.6423 49.531C36.4307 49.4777 36.2119 49.4444 35.9828 49.4563C35.9689 49.4572 35.9563 49.4617 35.9423 49.4627C26.7603 48.4065 24.2608 41.3728 13.5336 48.6723C10.2936 47.7082 6.43069 45.6356 3.50491 41.2128C2.91345 40.3235 1.72289 40.0906 0.847403 40.6895C-0.0325804 41.2871 -0.264842 42.4918 0.328866 43.3816C3.11195 47.5459 6.55132 49.9855 9.77868 51.4145C9.74087 51.4947 9.70125 51.59 9.66164 51.6811C8.83432 52.9415 8.1866 54.602 7.76529 56.815C7.70633 57.1382 5.07943 74.1146 9.20522 74.1146C13.331 74.1146 14.464 61.2724 16.7677 59.6283C17.0922 59.6575 23.2125 66.1515 28.4402 65.3351C29.665 65.1428 31.3232 64.377 32.7051 63.5625L34.9665 72.7299C35.2203 73.7586 36.1282 74.4565 37.1464 74.4565C37.2576 74.4565 37.3706 74.4483 37.4835 74.431C38.6318 74.2564 39.4587 73.2326 39.3979 72.058L38.8109 60.6434C38.4157 59.1205 38.0169 56.9672 38.0151 54.4502C38.0156 52.9374 38.1628 51.2955 38.5431 49.5885Z"/><path d="M58.6261 72.0083H58.058L56.8985 68.37H43.9085L42.749 72.0083H42.1801C41.7228 72.0083 41.351 72.3844 41.351 72.8484C41.351 73.312 41.7228 73.688 42.1801 73.688H58.6261C59.0834 73.688 59.4552 73.312 59.4552 72.8484C59.4552 72.3844 59.083 72.0083 58.6261 72.0083Z"/></symbol><symbol viewBox="0 0 65 72" id="services-item4" xmlns="http://www.w3.org/2000/svg"><path d="M13.0295 57.2247L15.442 48.563L14.5647 46.0089C12.7005 45.6758 11.1653 44.6763 10.1784 43.3438L6.88859 55.0037L0.418678 66.6637C-0.458597 68.2184 0.0897 70.2173 1.62493 71.1056C3.16016 71.994 5.13403 71.4388 6.01131 69.8841L12.8102 57.891C12.9199 57.6689 13.0295 57.4468 13.0295 57.2247Z"/><path d="M2.06368 33.3496C3.05062 33.9049 4.36653 33.4607 4.91483 32.3502L9.8495 22.1338L10.7268 21.4675L11.1654 18.6914C11.3847 17.2477 12.0427 15.9152 12.92 14.8047L6.99836 18.6914C6.66938 18.9134 6.45006 19.2466 6.23074 19.5797L1.07675 30.3513C0.52845 31.4618 0.967087 32.7944 2.06368 33.3496Z"/><path d="M20.4862 12.4727C23.7567 12.4727 26.4079 9.78799 26.4079 6.47618C26.4079 3.16437 23.7567 0.479614 20.4862 0.479614C17.2158 0.479614 14.5646 3.16437 14.5646 6.47618C14.5646 9.78799 17.2158 12.4727 20.4862 12.4727Z"/><path d="M59.0866 57.2247C59.0866 57.2247 59.1962 57.3357 59.1962 57.4468C60.0735 56.8916 60.4025 55.67 60.4025 55.67C63.6923 56.6695 64.3502 53.5601 64.3502 53.5601C64.7889 52.6718 62.5957 51.7834 62.5957 51.7834C62.486 49.5624 59.9638 48.8961 59.9638 48.8961C58.7576 47.7857 59.0866 48.8961 59.0866 48.8961C57.8803 48.7851 57.1127 49.2293 57.1127 49.2293C55.1388 47.3415 53.9326 50.2287 53.9326 50.2287C53.6036 50.2287 53.3843 50.3398 53.0553 50.3398C55.0292 53.0049 57.1127 55.3369 59.0866 57.2247Z"/><path d="M61.828 63.9987C61.2797 63.4435 57.3319 61.0004 57.3319 61.0004C58.2092 60.5562 58.3189 58.6684 58.3189 58.0022C56.2353 56.0033 54.0421 53.4492 51.849 50.562C50.7524 50.7841 43.5148 53.8934 36.4966 50.673C33.8648 49.4515 31.562 51.2283 31.562 51.2283C29.5881 53.5603 30.4654 57.3359 30.4654 57.3359L33.2068 54.3376C34.6324 53.2271 35.1807 53.4492 35.5097 54.0044C35.729 54.4486 35.6194 55.0039 35.2904 55.4481C32.6586 58.2243 33.5358 61.1115 33.5358 61.1115L29.8074 64.4429C28.3818 65.9976 30.0267 67.2191 30.0267 67.2191C30.3557 65.9976 32.9875 64.1098 32.9875 64.1098C32.8779 65.5534 33.5358 65.8865 33.5358 65.8865C35.4 65.3313 34.9614 63.4435 34.9614 63.4435C37.9222 63.3324 38.2512 61.9999 38.2512 61.9999C41.212 62.5551 42.6376 60.5562 42.6376 60.5562C43.4052 61.9999 50.0944 63.5545 50.0944 63.5545C50.533 63.7766 53.0552 68.8848 53.0552 68.8848C53.6035 68.9959 54.1518 69.7732 54.1518 69.7732C55.3581 70.5505 57.8802 69.6621 57.8802 69.6621C57.6609 68.6627 56.345 68.6627 56.345 68.6627C53.3842 68.6627 53.8228 63.6656 53.8228 63.6656C53.9325 62.9993 56.2353 64.2208 56.2353 64.2208L61.2797 66.1086C63.8018 67.4412 64.8984 65.8865 64.8984 65.8865C65.666 64.665 61.828 63.9987 61.828 63.9987Z"/><path d="M37.0448 24.4658C39.567 30.1292 44.9403 41.345 51.8488 50.4509C52.1778 50.3399 52.6164 50.3399 53.0551 50.2288C52.9454 50.1178 52.8358 50.0067 52.7261 49.7846C45.8176 40.7898 40.4442 29.574 38.0317 24.0216C37.5931 24.3547 37.1545 24.4658 37.0448 24.4658Z"/><path d="M36.9352 23.3553C38.0318 22.9111 38.6898 21.6896 38.2512 20.5791C37.8125 19.4687 36.6063 18.8024 35.5097 19.2466L29.5881 21.3565C22.6795 14.8047 22.3505 13.6942 19.6091 13.25C16.0999 12.6948 12.8102 15.2489 12.2619 18.8024L9.63004 37.4584C9.08174 41.0119 11.6039 44.3433 15.113 44.8986C15.2227 44.8986 15.3323 44.8986 15.442 44.8986L18.2931 53.5603L12.4812 62.222C11.4943 63.6656 11.8232 65.7755 13.3585 66.7749C14.784 67.7744 16.8676 67.4412 17.8545 65.8865L24.6534 55.8923C25.2017 55.0039 25.421 54.0045 25.092 53.005L21.4733 42.0113C22.0216 41.234 22.4602 40.2346 22.5699 39.2351L24.9824 22.689L27.7239 25.3542C28.2721 25.9094 29.1494 26.1315 29.917 25.7984L36.9352 23.3553Z"/></symbol><symbol viewBox="0 0 82 67" id="services-item5" xmlns="http://www.w3.org/2000/svg"><path d="M58.1681 30.7082C57.6585 29.547 56.7666 28.1277 54.9828 26.9665C53.9635 26.3214 50.0137 25.8053 49.8863 29.418C49.8863 29.418 48.2299 29.676 48.3573 30.8373C48.3573 30.8373 47.338 34.321 52.1797 33.9339C52.1797 33.9339 53.0716 40.5142 53.8361 41.9335C53.8361 41.9335 54.2183 43.2237 54.3457 44.514H56.3843L56.5117 41.9335C56.5117 41.9335 57.6585 42.7076 58.5504 44.514H61.4809C61.3534 43.4818 61.226 42.5786 60.9712 41.9335C60.9712 41.9335 65.3032 41.9335 66.8322 39.9981C66.8322 39.9981 68.1063 42.4496 69.6353 42.5786V44.643H71.6739C71.8013 44.256 71.8013 43.8689 71.9287 43.2237C71.9287 43.2237 72.6932 43.6108 73.0754 44.643H74.8592C74.6044 43.7398 72.311 35.3532 71.5465 34.708C71.5465 34.708 72.6932 34.579 73.0754 35.9983C73.0754 35.9983 73.7125 38.9659 74.9866 38.8369C74.9866 38.8369 75.8785 36.9015 74.3496 34.45C74.3496 34.45 73.7125 32.6436 70.3998 32.9017L60.8438 32.6436C59.5697 32.3856 58.6778 31.6114 58.1681 30.7082Z"/><path d="M46.5736 20.773C47.3381 19.7408 47.2107 18.1925 46.1914 17.2893C45.1721 16.5151 43.6431 16.6442 42.7512 17.6764C40.3304 20.773 35.9983 21.2891 32.9404 19.9988L31.2841 24.6438C36.508 26.7082 42.8786 25.676 46.5736 20.773Z"/><path d="M24.9134 12.6445C28.3614 12.6445 31.1566 9.81396 31.1566 6.32227C31.1566 2.83058 28.3614 0 24.9134 0C21.4653 0 18.6701 2.83058 18.6701 6.32227C18.6701 9.81396 21.4653 12.6445 24.9134 12.6445Z"/><path d="M28.6083 45.9332L23.257 43.7398L26.4423 34.5789C19.3072 30.5791 16.7589 24.2568 16.6315 23.8698C15.867 21.9344 16.7589 19.87 18.6701 19.0958C20.5813 18.3217 22.6199 19.2248 23.3844 21.1602C23.5118 21.4183 25.0408 24.773 28.9906 27.4825L31.4114 20.7731C31.6662 19.999 31.5388 19.2248 31.0292 18.5797C26.4423 13.4187 21.091 11.4833 15.23 13.2896C13.5736 13.8058 12.4269 15.096 12.0446 16.7733L6.94812 43.6107C6.94812 43.7398 6.94812 43.7398 6.94812 43.8688C6.94812 43.9978 6.94812 44.2559 6.94812 44.3849L7.20294 56.6423L4.39986 55.9972C2.48866 55.6101 0.450052 56.9004 0.0678125 58.8358C-0.314427 60.7712 0.959704 62.8356 2.8709 63.2227L10.1334 64.771C11.2802 65.029 12.2995 64.771 13.1914 63.9968C14.0832 63.2227 14.5929 62.1905 14.4655 61.0292L14.2107 48.1266L23.5118 51.8684V63.0936C23.5118 65.1581 25.1682 66.8354 27.2068 66.8354C29.2454 66.8354 30.9018 65.1581 30.9018 63.0936V49.4169C31.0292 47.8686 30.0099 46.5783 28.6083 45.9332Z"/><path d="M38.4191 31.8693C26.3149 30.9661 22.4925 22.0633 22.3651 21.6763C21.8554 20.386 20.4539 19.8699 19.1798 20.386C17.9056 20.9021 17.396 22.3214 17.9056 23.6117C18.1605 24.1278 23.0022 35.7401 38.1643 36.9013C39.5658 37.0303 40.7126 35.9981 40.7126 34.5789C40.7126 33.1596 39.8207 31.9983 38.4191 31.8693Z"/><path d="M60.2067 15.0961C57.6585 15.6122 55.7473 17.9346 55.7473 20.6442H67.087C67.087 17.6766 64.921 15.3541 62.1179 14.967C58.2955 10.7092 52.1797 12.3865 47.338 16.6444C47.5928 16.9024 47.8477 17.2895 48.1025 17.6766C51.5426 14.4509 56.2569 12.2575 60.2067 15.0961Z"/><path d="M79.5736 45.6752H43.7706C42.7513 45.6752 41.8594 46.5784 41.8594 47.6106C41.8594 48.6428 42.7513 49.5459 43.7706 49.5459H44.1528V52.7716C44.1528 57.8036 48.23 61.9324 53.1991 61.9324H70.3999C75.369 61.9324 79.4462 57.8036 79.4462 52.7716V49.5459H79.8285C80.8478 49.5459 81.7397 48.6428 81.7397 47.6106C81.4848 46.4493 80.5929 45.6752 79.5736 45.6752Z"/><path d="M56.7666 23.2247L56.894 22.0635C56.894 21.6764 56.7666 21.4183 56.3843 21.4183C56.0021 21.4183 55.7473 21.5474 55.7473 21.9344L55.6199 23.0957C55.6199 23.4827 55.7473 23.7408 56.1295 23.7408C56.3843 23.7408 56.6392 23.4827 56.7666 23.2247Z"/><path d="M55.2376 24.7729L55.1102 25.9342C55.1102 26.3213 55.2376 26.5793 55.6199 26.5793C56.0021 26.5793 56.2569 26.4503 56.2569 26.0632L56.3844 24.902C56.3844 24.5149 56.2569 24.2568 55.8747 24.2568C55.6199 24.2568 55.3651 24.5149 55.2376 24.7729Z"/><path d="M59.5696 23.7407C59.9518 23.7407 60.2066 23.4826 60.2066 23.0955V21.8053C60.2066 21.4182 59.9518 21.1602 59.5696 21.1602C59.1873 21.1602 58.9325 21.4182 58.9325 21.8053V23.0955C58.9325 23.3536 59.3147 23.7407 59.5696 23.7407Z"/><path d="M58.8052 26.0632C58.8052 26.4503 59.06 26.7083 59.4422 26.7083C59.8245 26.7083 60.0793 26.4503 60.0793 26.0632V24.7729C60.0793 24.3859 59.8245 24.1278 59.4422 24.1278C59.06 24.1278 58.8052 24.3859 58.8052 24.7729V26.0632Z"/><path d="M63.0099 21.2893C62.6276 21.2893 62.3728 21.5474 62.3728 21.9344V23.2247C62.3728 23.6118 62.6276 23.8698 63.0099 23.8698C63.3921 23.8698 63.6469 23.6118 63.6469 23.2247V21.9344C63.6469 21.5474 63.3921 21.2893 63.0099 21.2893Z"/><path d="M62.6277 24.902V26.1922C62.6277 26.5793 62.8825 26.8374 63.2647 26.8374C63.647 26.8374 63.9018 26.5793 63.9018 26.1922V24.902C63.9018 24.5149 63.647 24.2568 63.2647 24.2568C62.7551 24.2568 62.5003 24.5149 62.6277 24.902Z"/><path d="M66.3225 21.2893C65.9403 21.2893 65.8129 21.6764 65.8129 21.9344L65.9403 23.0957C65.9403 23.3537 66.1951 23.6118 66.5773 23.6118C66.9596 23.6118 67.2144 23.2247 67.2144 22.8376L66.9596 21.8054C66.9596 21.4183 66.5773 21.1603 66.3225 21.2893Z"/><path d="M66.1953 25.031L66.3227 26.1922C66.3227 26.4503 66.705 26.7083 66.9598 26.7083C67.342 26.7083 67.5969 26.3212 67.4694 26.0632V24.7729C67.4694 24.3859 67.0872 24.2568 66.8324 24.2568C66.4501 24.3859 66.1953 24.6439 66.1953 25.031Z"/></symbol><symbol viewBox="0 0 34 14" id="star" xmlns="http://www.w3.org/2000/svg"><path d="M33.5879 6.07877C33.9805 5.25313 34.097 4.3092 33.9184 3.40322C33.7793 2.6327 33.4297 1.92333 32.9134 1.36452C32.3971 0.805703 31.7374 0.422462 31.0173 0.263096C30.4458 0.126247 29.8525 0.131289 29.2831 0.277831C28.7137 0.424374 28.1835 0.708501 27.7333 1.1083C26.6112 2.05659 25.2142 2.55742 23.7831 2.52444H10.2169C8.78582 2.55742 7.38878 2.05659 6.26668 1.1083C5.81651 0.708501 5.28628 0.424374 4.71689 0.277831C4.14751 0.131289 3.55419 0.126247 2.98269 0.263096C2.26261 0.422462 1.60285 0.805703 1.08659 1.36452C0.570324 1.92333 0.220653 2.6327 0.0816483 3.40322C-0.0970523 4.3092 0.0195463 5.25313 0.412146 6.07877C0.554439 6.37599 0.628633 6.70497 0.628633 7.03872C0.628633 7.37247 0.554439 7.70146 0.412146 7.99867C0.0203593 8.82458 -0.0962019 9.7682 0.0816483 10.6742C0.221014 11.4452 0.5707 12.155 1.08682 12.7146C1.60293 13.2743 2.26249 13.6588 2.98269 13.8199C3.55419 13.9568 4.14751 13.9517 4.71689 13.8052C5.28628 13.6587 5.81651 13.3745 6.26668 12.9747C7.38828 12.0249 8.78524 11.5221 10.2169 11.553H23.7831C25.2148 11.5221 26.6117 12.0249 27.7333 12.9747C28.1835 13.3745 28.7137 13.6587 29.2831 13.8052C29.8525 13.9517 30.4458 13.9568 31.0173 13.8199C31.7375 13.6588 32.3971 13.2743 32.9132 12.7146C33.4293 12.155 33.779 11.4452 33.9184 10.6742C34.0962 9.7682 33.9796 8.82458 33.5879 7.99867C33.4456 7.70146 33.3714 7.37247 33.3714 7.03872C33.3714 6.70497 33.4456 6.37599 33.5879 6.07877Z"/></symbol><symbol viewBox="0 0 34 14" id="star-empty" xmlns="http://www.w3.org/2000/svg"><path d="M33.1365 5.8636C32.9618 6.22891 32.8714 6.6315 32.8714 7.03872C32.8714 7.44591 32.9618 7.84849 33.1365 8.21377C33.4816 8.94174 33.5851 9.77608 33.4277 10.5779L33.4277 10.5779L33.4263 10.5853C33.3033 11.2656 32.9954 11.888 32.5456 12.3757C32.0962 12.8631 31.5258 13.1938 30.9081 13.332L30.9081 13.332L30.9009 13.3337C30.4087 13.4515 29.8982 13.4472 29.4077 13.321C28.9172 13.1947 28.4576 12.9493 28.0653 12.6009L28.0654 12.6008L28.0565 12.5932C26.8458 11.5679 25.333 11.0208 23.7778 11.053H10.2222C8.66696 11.0208 7.15416 11.5679 5.94355 12.5932L5.94346 12.5931L5.93467 12.6009C5.54239 12.9493 5.08284 13.1947 4.59227 13.321C4.10183 13.4472 3.59127 13.4515 3.09912 13.3337L3.09914 13.3336L3.09185 13.332C2.47421 13.1938 1.90384 12.8631 1.45438 12.3757C1.0046 11.888 0.69666 11.2656 0.573674 10.5853L0.573729 10.5853L0.572285 10.5779C0.414882 9.77605 0.518407 8.94169 0.863545 8.21371C1.03826 7.84843 1.12863 7.44588 1.12863 7.03872C1.12863 6.63124 1.03811 6.22837 0.863126 5.86286L0.412146 6.07877L0.863695 5.86405C0.517693 5.13641 0.414044 4.30179 0.572197 3.49998L0.572262 3.49999L0.573705 3.49199C0.696329 2.81227 1.00414 2.19058 1.45385 1.70381C1.90324 1.21738 2.47351 0.887884 3.09073 0.751283L3.09075 0.751355L3.09912 0.74935C3.59127 0.631503 4.10183 0.635827 4.59227 0.762051C5.08284 0.88831 5.54239 1.13378 5.93467 1.48215L5.93457 1.48226L5.94394 1.49019C7.15509 2.51374 8.66795 3.05881 10.2226 3.02444H23.7774C25.332 3.05881 26.8449 2.51374 28.0561 1.49019L28.0562 1.4903L28.0653 1.48215C28.4576 1.13378 28.9172 0.88831 29.4077 0.762051C29.8982 0.635827 30.4087 0.631503 30.9009 0.74935L30.9009 0.749422L30.9093 0.751283C31.5265 0.887884 32.0968 1.21738 32.5462 1.70381C32.9959 2.19058 33.3037 2.81228 33.4263 3.49199L33.4262 3.492L33.4278 3.49998C33.5859 4.30162 33.4823 5.13607 33.1365 5.8636ZM33.1365 5.8636C33.1366 5.86336 33.1368 5.8631 33.1369 5.86286L33.5879 6.07877L33.1363 5.86405C33.1364 5.8639 33.1364 5.86375 33.1365 5.8636Z"/></symbol></svg>