<?xml version="1.0" encoding="utf-8"?><svg viewBox="0 0 174 152" xmlns="http://www.w3.org/2000/svg" xmlns:xlink="http://www.w3.org/1999/xlink"><style>:root>svg{display:none}:root>svg:target{display:block}</style><svg fill="none" viewBox="0 0 9 15" id="btn-arrow" xmlns="http://www.w3.org/2000/svg"><path d="m1.155 1.234 5.892 6.06-5.892 6.062" stroke="#fff" stroke-width="2" stroke-miterlimit="10" stroke-linecap="round" stroke-linejoin="round"/></svg><svg fill="none" viewBox="0 0 40 30" id="burger" xmlns="http://www.w3.org/2000/svg"><path fill="#000" d="M0 12h40v6H0zM0 24h40v6H0zM0 0h40v6H0z"/></svg><svg fill="none" viewBox="0 0 174 152" id="dog-popup-bg" xmlns="http://www.w3.org/2000/svg"><path d="M.5 64.881s-8-37.014 47-59.514 161.5 44.5 115 93-72 67-115 43S.5 64.881.5 64.881Z" fill="#124C5F"/></svg><svg fill="none" viewBox="0 0 55 52" id="dog-popup-play" xmlns="http://www.w3.org/2000/svg"><path d="M39.203 25.22c-.032.313-.238.656-.712 1.005L24.553 36.48c-.992.73-3.345.9-3.345-.818V16.686c0-1.553 2.526-1.936 3.537-1.304l13.938 8.721c.532.333.649.732.52 1.116ZM55 30.61C53.528 63.349-5.966 56.567.49 22.105 3.198 7.644 16.147.04 30.375.956c16.015 1.031 24.334 14.54 24.624 29.438 0 .038-.026.069-.031.105.005.04.034.066.032.112Zm-2.986.424C51.773 20.488 47.74 9.1 37.334 4.566 23.542-1.442 7.292 5.644 3.787 20.246.652 33.304 7.624 44.883 20.38 49.071c13.597 4.464 30.892-2.561 31.634-18.038Z" fill="#fff"/></svg><svg fill="none" viewBox="0 0 30 30" id="facebook" xmlns="http://www.w3.org/2000/svg"><g clip-path="url(#ea)"><path d="M18.632 7.367c.041-.046.233-.197.987-.197h2.471c.804 0 1.458-.654 1.458-1.456V1.403c0-.801-.653-1.454-1.455-1.456L18.42-.059c-2.265 0-4.191.746-5.57 2.158-1.372 1.405-2.097 3.366-2.097 5.672v2.325H7.945c-.804 0-1.458.653-1.458 1.456v4.643c0 .802.654 1.455 1.458 1.455h2.809v10.836c0 .803.654 1.456 1.458 1.456h4.814c.803 0 1.457-.653 1.457-1.456V17.65h3.433c.804 0 1.458-.653 1.458-1.455l.002-4.643a1.46 1.46 0 0 0-1.471-1.456h-3.422V8.26c0-.599.081-.815.149-.892Z" fill="#5B5B5B"/></g><defs><clipPath id="ea"><path fill="#fff" d="M0 0h30v30H0z"/></clipPath></defs></svg><svg fill="none" viewBox="0 0 29 36" id="instagram" xmlns="http://www.w3.org/2000/svg"><g clip-path="url(#fa)" fill="#5B5B5B"><path d="M24.167 0H4.833a4.85 4.85 0 0 0-3.417 1.406A4.783 4.783 0 0 0 0 4.8V24c0 1.273.51 2.494 1.416 3.394A4.85 4.85 0 0 0 4.833 28.8h19.334a4.85 4.85 0 0 0 3.417-1.406A4.783 4.783 0 0 0 29 24V4.8c0-1.273-.51-2.494-1.416-3.394A4.85 4.85 0 0 0 24.167 0Zm2.416 24c0 .637-.254 1.247-.707 1.697a2.425 2.425 0 0 1-1.71.703H4.834c-.64 0-1.255-.253-1.709-.703A2.392 2.392 0 0 1 2.417 24V4.8c0-.637.254-1.247.707-1.697a2.425 2.425 0 0 1 1.71-.703h19.333c.64 0 1.255.253 1.708.703.454.45.708 1.06.708 1.697V24Z"/><path d="M14.5 7.2a7.286 7.286 0 0 0-4.028 1.213 7.211 7.211 0 0 0-2.67 3.232 7.154 7.154 0 0 0-.413 4.16c.28 1.396.97 2.68 1.984 3.686a7.265 7.265 0 0 0 3.713 1.97 7.297 7.297 0 0 0 4.188-.41 7.24 7.24 0 0 0 3.254-2.65 7.165 7.165 0 0 0-.901-9.092A7.276 7.276 0 0 0 14.5 7.2Zm0 12c-.956 0-1.89-.282-2.685-.809a4.807 4.807 0 0 1-1.78-2.154 4.77 4.77 0 0 1 1.047-5.231 4.864 4.864 0 0 1 5.267-1.04 4.826 4.826 0 0 1 2.17 1.767 4.777 4.777 0 0 1-.601 6.061A4.85 4.85 0 0 1 14.5 19.2ZM22.354 8.4a1.806 1.806 0 0 0 1.813-1.8c0-.994-.812-1.8-1.813-1.8a1.806 1.806 0 0 0-1.812 1.8c0 .994.811 1.8 1.812 1.8Z"/></g><defs><clipPath id="fa"><path fill="#fff" d="M0 0h29v36H0z"/></clipPath></defs></svg><svg fill="none" viewBox="0 0 30 22" id="mail" xmlns="http://www.w3.org/2000/svg"><path d="M29.979.897a.939.939 0 0 0-.122-.382c-.018-.031-.022-.067-.043-.097-.016-.023-.041-.034-.059-.055a.979.979 0 0 0-.149-.139.99.99 0 0 0-.154-.104 1.012 1.012 0 0 0-.172-.064 1.001 1.001 0 0 0-.203-.041C29.05.013 29.027 0 29 0H1C.973 0 .95.013.923.016a.959.959 0 0 0-.204.041C.66.075.603.092.549.12a.953.953 0 0 0-.156.106.965.965 0 0 0-.148.138C.227.385.202.396.186.419.165.449.16.484.143.516a.888.888 0 0 0-.122.381C.017.933 0 .964 0 1v20a1 1 0 0 0 1 1h28a1 1 0 0 0 1-1V1c0-.036-.017-.067-.021-.103ZM25.879 2 15 9.771 4.121 2h21.758ZM2 20V2.943l12.419 8.871a.999.999 0 0 0 1.162 0L28 2.943V20H2Z" fill="#D2CFCF"/></svg><svg fill="none" viewBox="0 0 87 95" id="services-item1" xmlns="http://www.w3.org/2000/svg"><path d="M56.803 28.285c-.227-1.087-.85-1.904-1.705-2.241-.06-.024-.125-.027-.187-.046.613-3.035 2.341-14.069-3.321-20.526C48.308 1.73 43.187.25 36.377 1.066a1.085 1.085 0 0 0-.402-.092C30.626.786 26.533 2.392 23.85 5.74c-5.257 6.557-3.354 17.621-2.805 20.244-.081.023-.164.028-.243.06-.856.337-1.477 1.154-1.706 2.241-.203.969-.09 2.088.32 3.15.748 1.949 2.263 3.193 3.718 3.193.156 0 .31-.014.464-.044 1.234 3.978 3.293 7.286 6.694 9.316v4.078h-1.767v11.501h18.85V47.978h-1.768v-4.053c3.408-2.027 5.469-5.345 6.702-9.339.151.028.304.042.458.042 1.453 0 2.969-1.244 3.719-3.192.408-1.063.521-2.182.318-3.15Zm-35.768 2.51c-.282-.735-.369-1.516-.238-2.144.105-.495.336-.848.635-.966a.72.72 0 0 1 .263-.047c.17 0 .358.052.552.149a41 41 0 0 0 .877 5.074c-.666-.014-1.598-.79-2.089-2.065Zm25.57 18.945c-1.73 1.842-4.954 3.083-8.656 3.083-3.7 0-6.925-1.241-8.655-3.083h1.867c.48 0 .87-.395.87-.881v-4.08c1.696.707 3.666 1.148 5.962 1.265 2.26-.116 4.2-.55 5.874-1.244v4.059c0 .486.39.88.87.88h1.868Zm5.34-22.886a53.86 53.86 0 0 1-.185 1.604 38.882 38.882 0 0 1-.695 3.763c-.106.446-.226.875-.349 1.3-1.066 3.7-2.746 6.584-5.34 8.427-.383.273-.798.51-1.222.736-1.705.914-3.726 1.474-6.16 1.6-2.43-.124-4.45-.675-6.157-1.572a11.433 11.433 0 0 1-1.3-.781c-2.599-1.846-4.283-4.724-5.351-8.417a28.417 28.417 0 0 1-.35-1.3 38.652 38.652 0 0 1-.696-3.755 71.858 71.858 0 0 1-.517-6.165c.204-1.292.502-2.365.858-3.243.535-.092 1.69-.345 3.05-.98.214.3.579.49.95.462.192-.01 2.755-.158 5.465-1.235-.014.125-.006.253.023.38.116.493.547.845 1.047.856.233.008 4.839.065 7.68-3.227 1.098 2.66 3.56 7.018 8.581 9.754l.749 1.044c-.024.255-.054.499-.08.749Zm2.918 3.942c-.49 1.273-1.419 2.047-2.083 2.064.392-1.616.674-3.319.873-5.074a1.26 1.26 0 0 1 .55-.148c.094 0 .183.016.263.047.41.162.575.675.636.966.131.628.044 1.41-.24 2.145Zm-18.888 2.293v-2.47c0-.486.39-.88.87-.88s.87.394.87.88v2.27h1.338c.48 0 .87.395.87.882 0 .486-.39.88-.87.88h-1.535c-.85 0-1.543-.7-1.543-1.562Zm-4.157-5.665c0 .948-.759 1.716-1.694 1.716a1.705 1.705 0 0 1-1.694-1.716c0-.948.758-1.716 1.694-1.716.936 0 1.694.768 1.694 1.716Zm15.651 0c0 .948-.758 1.716-1.694 1.716a1.705 1.705 0 0 1-1.694-1.716c0-.948.758-1.716 1.694-1.716.936 0 1.694.768 1.694 1.716Zm-5.26 11.093c0 1.422-2.2 1.93-4.26 1.93-2.058 0-4.258-.508-4.258-1.93 0-.487.39-.881.87-.881.388 0 .717.257.829.612.29.175 1.206.436 2.56.436 1.353 0 2.268-.261 2.56-.436a.871.871 0 0 1 .828-.612c.48 0 .87.394.87.88Zm43.644 27.479a2.22 2.22 0 0 0-1.102-.968c.073-.485 0-.995-.256-1.454a2.218 2.218 0 0 0-1.102-.968c.072-.485 0-.995-.256-1.453a2.213 2.213 0 0 0-1.103-.966 2.268 2.268 0 0 0-.255-1.454 2.225 2.225 0 0 0-1.351-1.064 2.2 2.2 0 0 0-1.696.214l-.882.508a2.662 2.662 0 0 0-.662-.737v-.964h4.93c.48 0 .87-.394.87-.881a.876.876 0 0 0-.87-.881h-4.93v-.881h4.93c.48 0 .87-.395.87-.881a.876.876 0 0 0-.87-.881h-4.93v-.881h4.93c.48 0 .87-.395.87-.881a.876.876 0 0 0-.87-.881h-4.93v-.881h4.93c.48 0 .87-.395.87-.881a.876.876 0 0 0-.87-.881h-4.93l.006-.881h4.924c.48 0 .87-.395.87-.881a.876.876 0 0 0-.87-.881h-4.924c-.979 0-1.746.902-1.746 2.055v4.245c-.074-1.001-.44-2.006-1.086-2.872-1.59-2.132-4.312-2.776-6.065-1.434-.914.699-1.377 1.803-1.397 3-1.142-.31-2.317-.16-3.232.54-.881.673-1.398 1.766-1.417 2.996-.017 1.14.38 2.313 1.118 3.304.739.99 1.745 1.698 2.832 1.993.364.099.727.147 1.083.147a3.51 3.51 0 0 0 2.151-.707c.058-.044.1-.102.153-.15l2.729 3.314-.986 2.151a4.112 4.112 0 0 0-.205.407l-5.736 3.296-9.788-16.279c-.24-.399-.532-.742-.846-1.056a3.454 3.454 0 0 0-2.134-1.315 5.423 5.423 0 0 0-2.638-.222v11.807c.213.066.41.164.58.294.322.244.556.587.651.991l.22.931 4.06 17.23v-7.38l3.26 5.424a5.494 5.494 0 0 0 4.711 2.679 5.43 5.43 0 0 0 2.715-.729l10.445-6.002c.043-.024.077-.059.119-.085.082.005.163.016.246.016a4 4 0 0 0 2-.536l1.964-1.13.12.146a1.15 1.15 0 0 0 1.59.185l.36-.275.378-.29.36-.274c.36-.276.497-.746.399-1.2l.853-.49a2.242 2.242 0 0 0 1.05-1.368 2.27 2.27 0 0 0-.212-1.717Zm-5.062-4.069.16-.092a.493.493 0 0 1 .673.188.506.506 0 0 1-.185.684l-.16.091-1.146.66-.971.56a.491.491 0 0 1-.673-.188.506.506 0 0 1 .184-.685l.897-.516 1.221-.702Zm-2.793-1.372.022-.047c.016-.035.021-.072.035-.108.016-.041.028-.083.042-.125l1.086-.625.409-.235a.498.498 0 0 1 .375-.047.49.49 0 0 1 .3.235c.083.15.074.321.004.465a.487.487 0 0 1-.19.219l-.626.36-.886.51-.766.44a.484.484 0 0 1-.308.052l.503-1.094Zm-9.96-4.806c-.42.319-.956.241-1.238.164-.582-.158-1.157-.573-1.58-1.139-.421-.566-.658-1.24-.65-1.85.006-.296.076-.839.496-1.16.21-.16.47-.237.751-.237.682 0 1.495.447 2.065 1.211.806 1.08.876 2.459.155 3.01Zm1.81-4.515c-.804-1.079-.875-2.458-.153-3.01.21-.16.469-.236.75-.236.683 0 1.495.447 2.066 1.212.422.566.66 1.24.65 1.85-.005.295-.075.838-.495 1.159-.42.319-.955.241-1.237.165-.582-.158-1.158-.573-1.58-1.14Zm2.24 7.079a1.218 1.218 0 0 1 .234-1.692 1.183 1.183 0 0 1 1.67.236c.139.187.195.4.215.617-.326.214-.6.503-.772.874l-.19.413a1.174 1.174 0 0 1-1.156-.448Zm6.84 12.105-.796.458a2.312 2.312 0 0 1-3.17-.883l-2.15-3.832a2.365 2.365 0 0 1-.22-1.788l.01-.021.285-.623 2.126-4.639c.061-.132.228-.219.435-.239a.965.965 0 0 1 .895.423c.02.03.043.056.058.086.073.146.091.294.04.405l-1.78 3.87-.355.771c-.034.074-.041.151-.054.228a.871.871 0 0 0 .476.942.854.854 0 0 0 .366.083.858.858 0 0 0 .354-.086v4.186c0 .486.39.88.87.88s.87-.394.87-.88v-3.055l2.1 2.549.535.65-.895.515Zm1.592-3.98a.49.49 0 0 1-.673-.188.506.506 0 0 1 .185-.684l1.103-.635 1.014-.584.16-.091a.494.494 0 0 1 .374-.047.506.506 0 0 1 .113.919l-.158.091-.94.54-1.178.679Zm3.867.808a.496.496 0 0 1-.232.302h-.001l-.408.235-.484.279-1.383.796a.474.474 0 0 1-.328.052.49.49 0 0 1-.347-.24.506.506 0 0 1 .186-.684l1.309-.753.353-.203.615-.354a.493.493 0 0 1 .242-.065c.013 0 .026.004.04.005.03.003.061.005.092.013a.504.504 0 0 1 .347.617ZM55.324 92.751l-.484-11.412a.496.496 0 0 0-.014-.09l-4.74-20.116a.53.53 0 0 0-.102-.205.765.765 0 0 0-.604-.274H26.519a.766.766 0 0 0-.605.274.53.53 0 0 0-.102.204l-4.163 17.67-.526-.3-.122-.07c-.136-.075-.273-.137-.41-.2l3.873-16.442.163-.689.056-.24a1.74 1.74 0 0 1 .651-.991c.171-.13.368-.228.58-.294V47.812a5.461 5.461 0 0 0-5.84 1.625L1.367 71.022a5.627 5.627 0 0 0-1.326 4.367 5.59 5.59 0 0 0 2.341 3.907l10.73 7.489c.335.234.69.41 1.052.559.44.51.963.947 1.552 1.28l3.781 2.133.567.32.34.19.199.113c.01.006.02.007.03.013l-.059 1.36-.055 1.262c-.007.172.077.3.15.376a.78.78 0 0 0 .57.231h33.419a.78.78 0 0 0 .57-.23.513.513 0 0 0 .15-.377l-.054-1.264ZM13.737 73.667l6.667-7.694v12.172a5.446 5.446 0 0 0-.657-.222c-.128-.108-.24-.23-.38-.327l-5.63-3.929Zm13.056 10.434a.297.297 0 0 1-.402.118l-3.956-2.232c-.219-.123-.477-.116-.709-.024a1.008 1.008 0 0 0-.514.437.891.891 0 0 0 .335 1.201l.003.002 4.734 2.672a.298.298 0 0 1 .14.18.299.299 0 0 1-.203.37.294.294 0 0 1-.225-.025l-4.626-2.611-.112-.063a.74.74 0 0 0-.306-.087.926.926 0 0 0-.548.145c-.015.009-.032.017-.047.027a.979.979 0 0 0-.323.329.893.893 0 0 0-.078.67c.053.193.18.35.339.467.026.019.045.047.074.064l.035.02.041.023.421.237 3.458 1.951a.296.296 0 0 1 .14.181.296.296 0 0 1-.203.368.289.289 0 0 1-.225-.025l-3.199-1.804-.433-.244-.139-.079-.24-.135-.327-.184-.059-.034c-.276-.155-.697-.095-.966.075a.885.885 0 0 0-.41.768.883.883 0 0 0 .144.452.87.87 0 0 0 .303.296l.9.508.567.32.227.128.344.194.991.56a.303.303 0 0 1 .114.407.297.297 0 0 1-.403.117l-.731-.413-.315-.177-.255-.145-.567-.32-2.071-1.168-.946-.534a4.124 4.124 0 0 1-1.796-2.058c-.471-1.177-.418-2.464.142-3.442.681-1.191 1.992-2.071 3.451-2.071.592 0 1.208.149 1.815.475.018.01.035.015.053.025l.174.1.3.17.525.3.312.179 5.137 2.932a.299.299 0 0 1 .14.182.296.296 0 0 1-.025.225Zm21.51-4.368c-.025 1.548-1.5 2.223-2.251 1.028l-.757-1.2a7.285 7.285 0 0 1-.903 1.99c.003.095.012.188.012.283 0 3.994-2.89 7.232-6.455 7.232s-6.455-3.238-6.455-7.232c0-.095.01-.188.013-.283a7.266 7.266 0 0 1-.904-1.99l-.756 1.2c-.752 1.195-2.226.52-2.252-1.028a46.536 46.536 0 0 0-.084-2.209c-.165-2.583 3.307-3.794 4.872-4.208 1.392-1.013 3.367-1.469 5.566-1.469s4.175.456 5.567 1.469c1.565.414 5.037 1.625 4.872 4.208a47.629 47.629 0 0 0-.085 2.209Zm-12.999 5.364c0-1.088 1.184-1.97 2.645-1.97s2.645.882 2.645 1.97-1.184 1.97-2.645 1.97c-1.46 0-2.645-.882-2.645-1.97Z" fill="#124C5F"/></svg><svg fill="none" viewBox="0 0 64 65" id="services-item2" xmlns="http://www.w3.org/2000/svg"><path d="m45.878 28.92 6.044-6.121c.718.238 1.471.4 2.269.4h2.453c4.064 0 7.358-3.337 7.358-7.453s-3.294-7.451-7.358-7.451h-.805v-.818c0-4.116-3.294-7.452-7.359-7.452-4.064 0-7.359 3.336-7.359 7.452v2.484c0 .808.16 1.57.395 2.298l-6.044 6.12 10.406 10.54ZM18.125 35.944l-6.044 6.12c-.719-.238-1.472-.4-2.27-.4H7.36C3.294 41.664 0 45 0 49.116s3.294 7.452 7.359 7.452h.804v.815c0 4.116 3.295 7.452 7.36 7.452 4.064 0 7.358-3.336 7.358-7.452V54.9c0-.807-.16-1.57-.395-2.297l6.044-6.121-10.405-10.537Z" fill="#124C5F"/><path d="M56.644 41.665H54.19c-.798 0-1.55.161-2.27.4L22.49 12.259c.235-.728.395-1.49.395-2.298V7.477c0-4.116-3.295-7.452-7.36-7.452-4.064 0-7.358 3.336-7.358 7.452v.815h-.807C3.294 8.292 0 11.628 0 15.744s3.294 7.452 7.359 7.452h2.453c.797 0 1.55-.161 2.269-.4l29.433 29.806c-.236.728-.395 1.49-.395 2.297v2.484c0 4.116 3.294 7.452 7.359 7.452 4.064 0 7.359-3.336 7.359-7.452v-.814h.804c4.065 0 7.359-3.336 7.359-7.452s-3.292-7.452-7.356-7.452Z" fill="#124C5F"/></svg><svg fill="none" viewBox="0 0 107 75" id="services-item3" xmlns="http://www.w3.org/2000/svg"><path d="M74.876 46.317c-2.5-.407-4.973.94-6.018 3.275-.202.453-.34.923-.42 1.397 2.58-1.273 4.836-2.807 6.783-4.616l-.345-.056ZM77.195 23.691c4.688-3.088 6.015-9.44 2.966-14.186-3.05-4.746-9.322-6.09-14.01-3.001-4.687 3.088-6.014 9.44-2.965 14.186 3.05 4.746 9.322 6.09 14.01 3.001ZM95.781 26.28c-4.38-5.491-10.327-5.554-13.612-3.314-3.285 2.238-3.045 7.926-.302 11.745l.387.647c.945-2.905 1.078-5.013 1.08-5.042.096-2.464 2.07-4.388 4.494-4.388.056 0 .112 0 .169.003 2.48.092 4.424 2.21 4.332 4.723v.007l-.002.04c-.074 1.407-.55 6.464-3.565 12.473a32.125 32.125 0 0 1-.97 1.796 63.615 63.615 0 0 1 1.795 3.74l-3.84-.625c-2.596 3.523-6.569 7.519-12.484 10.65l17.163 14.386a5.56 5.56 0 0 0 3.585 1.31 5.59 5.59 0 0 0 4.337-2.065c1.981-2.424 1.647-6.016-.747-8.022l-4.127-3.46 1.335.217c.414.067.823.084 1.225.06.97.047 2.11-.296 3.512-.791 3.895-1.375 8.311-3.798 7.163-11.184-2.317-9.921-4.952-15.32-10.928-22.906Z" fill="#124C5F"/><path d="M87.96 42.76c3.241-6.459 3.45-11.805 3.47-12.14.073-2.014-1.478-3.705-3.466-3.778-1.984-.075-3.652 1.492-3.73 3.5-.006.232-.306 4.628-2.936 9.582-2.658 4.962-7.437 10.537-17.11 13.798-1.889.63-2.915 2.692-2.29 4.605a3.607 3.607 0 0 0 3.418 2.505c.374 0 .755-.06 1.13-.185C78.271 56.727 84.75 49.21 87.96 42.76ZM40.533 60.104c1.637.315 3.607.834 4.128 1.393 1.402 1.498 2.087 4.593 3.905 4.81 1.27.15 1.716.123 3.29-.905 1.553-1.018.078-4.979-.293-6.5-.526-2.16.728-4.532.747-4.677.016-.12 1.096-2.414 4.218-1.543 1.09.306.452-1.735-1.256-2.754-2.03-1.211-3.499-.647-4.983.532-2.865-2.22-7.354-1.787-9.906-.82a20.442 20.442 0 0 0-.566 4.81 23.016 23.016 0 0 0 .716 5.654Zm7.276-4.79a1.452 1.452 0 0 1 2.033.388 1.493 1.493 0 0 1-.385 2.058 1.452 1.452 0 0 1-2.034-.389 1.493 1.493 0 0 1 .386-2.058ZM38.543 49.589c-.664.009-1.297-.01-1.9-.058a2.212 2.212 0 0 0-.66-.075c-.014.001-.027.006-.04.007-9.183-1.056-11.682-8.09-22.41-.79-3.24-.965-7.102-3.037-10.028-7.46a1.898 1.898 0 0 0-2.658-.523 1.95 1.95 0 0 0-.518 2.692c2.783 4.164 6.222 6.604 9.45 8.032-.038.08-.078.176-.117.267-.828 1.26-1.475 2.921-1.897 5.134-.059.323-2.686 17.3 1.44 17.3 4.126 0 5.259-12.843 7.563-14.487.324.03 6.444 6.523 11.672 5.707 1.225-.192 2.883-.958 4.265-1.772l2.262 9.167a2.252 2.252 0 0 0 2.517 1.701 2.27 2.27 0 0 0 1.914-2.373l-.587-11.415a24.925 24.925 0 0 1-.796-6.193c0-1.513.148-3.155.528-4.861ZM58.626 72.008h-.568l-1.16-3.638h-12.99l-1.159 3.638h-.569a.835.835 0 0 0-.829.84c0 .464.372.84.83.84h16.445c.457 0 .83-.376.83-.84a.835.835 0 0 0-.83-.84Z" fill="#124C5F"/></svg><svg fill="none" viewBox="0 0 65 72" id="services-item4" xmlns="http://www.w3.org/2000/svg"><path d="m13.03 57.225 2.412-8.662-.877-2.554c-1.864-.333-3.4-1.333-4.387-2.665l-3.29 11.66-6.47 11.66c-.877 1.554-.328 3.553 1.207 4.442 1.535.888 3.509.333 4.386-1.222l6.8-11.993c.109-.222.219-.444.219-.666ZM2.064 33.35c.987.555 2.303.11 2.85-1L9.85 22.134l.877-.666.438-2.777c.22-1.443.878-2.776 1.755-3.886L6.998 18.69c-.329.222-.548.556-.767.889L1.077 30.35a2.239 2.239 0 0 0 .987 2.999ZM20.486 12.473c3.27 0 5.922-2.685 5.922-5.997S23.757.48 20.486.48c-3.27 0-5.921 2.684-5.921 5.996 0 3.312 2.65 5.997 5.921 5.997ZM59.087 57.225s.11.11.11.222c.877-.555 1.206-1.777 1.206-1.777 3.29 1 3.947-2.11 3.947-2.11.439-.888-1.754-1.777-1.754-1.777-.11-2.22-2.632-2.887-2.632-2.887-1.206-1.11-.877 0-.877 0-1.207-.11-1.974.333-1.974.333-1.974-1.887-3.18 1-3.18 1-.33 0-.549.11-.878.11 1.974 2.666 4.058 4.998 6.032 6.886ZM61.828 63.999C61.28 63.443 57.332 61 57.332 61c.877-.444.987-2.332.987-2.998-2.084-1.999-4.277-4.553-6.47-7.44-1.097.222-8.334 3.331-15.352.111-2.632-1.221-4.935.555-4.935.555-1.974 2.332-1.097 6.108-1.097 6.108l2.742-2.998c1.425-1.11 1.974-.889 2.303-.334.219.445.11 1-.22 1.444-2.631 2.776-1.754 5.663-1.754 5.663l-3.729 3.332c-1.425 1.555.22 2.776.22 2.776.329-1.221 2.96-3.11 2.96-3.11-.11 1.444.549 1.778.549 1.778 1.864-.556 1.425-2.444 1.425-2.444 2.961-.11 3.29-1.443 3.29-1.443 2.961.555 4.387-1.444 4.387-1.444.767 1.444 7.456 2.998 7.456 2.998.439.223 2.961 5.33 2.961 5.33.548.112 1.097.89 1.097.89 1.206.776 3.728-.112 3.728-.112-.22-1-1.535-1-1.535-1-2.96 0-2.522-4.996-2.522-4.996.11-.667 2.412.555 2.412.555l5.045 1.888c2.522 1.332 3.618-.222 3.618-.222.768-1.222-3.07-1.888-3.07-1.888ZM37.045 24.466c2.522 5.663 7.895 16.879 14.804 25.985.329-.111.767-.111 1.206-.222a1.53 1.53 0 0 1-.329-.444c-6.908-8.995-12.282-20.211-14.694-25.763-.439.333-.877.444-.987.444Z" fill="#124C5F"/><path d="M36.935 23.355c1.097-.444 1.755-1.665 1.316-2.776-.438-1.11-1.645-1.777-2.741-1.332l-5.922 2.11c-6.909-6.552-7.238-7.663-9.979-8.107-3.51-.555-6.799 1.999-7.347 5.552L9.63 37.458c-.548 3.554 1.974 6.885 5.483 7.44h.329l2.851 8.662-5.812 8.662c-.987 1.444-.658 3.553.877 4.553 1.426 1 3.51.666 4.497-.889l6.798-9.994c.549-.888.768-1.888.439-2.887l-3.619-10.994c.549-.777.987-1.776 1.097-2.776l2.412-16.546 2.742 2.665c.548.555 1.425.777 2.193.444l7.018-2.443Z" fill="#124C5F"/></svg><svg fill="none" viewBox="0 0 82 67" id="services-item5" xmlns="http://www.w3.org/2000/svg"><path d="M58.168 30.708c-.51-1.161-1.401-2.58-3.185-3.741-1.02-.646-4.97-1.162-5.097 2.451 0 0-1.656.258-1.529 1.42 0 0-1.019 3.483 3.823 3.096 0 0 .892 6.58 1.656 8 0 0 .382 1.29.51 2.58h2.038l.128-2.58s1.146.774 2.038 2.58h2.93c-.127-1.032-.254-1.935-.509-2.58 0 0 4.332 0 5.861-1.936 0 0 1.274 2.452 2.803 2.58v2.065h2.039c.127-.387.127-.774.255-1.42 0 0 .764.388 1.146 1.42h1.784c-.255-.903-2.548-9.29-3.313-9.935 0 0 1.147-.129 1.53 1.29 0 0 .637 2.968 1.91 2.839 0 0 .892-1.936-.636-4.387 0 0-.637-1.806-3.95-1.548l-9.556-.258a3.916 3.916 0 0 1-2.676-1.936ZM46.574 20.773c.764-1.032.637-2.58-.383-3.484-1.019-.774-2.548-.645-3.44.387-2.42 3.097-6.753 3.613-9.81 2.323l-1.657 4.645c5.224 2.064 11.595 1.032 15.29-3.871ZM24.913 12.645c3.448 0 6.244-2.831 6.244-6.323C31.157 2.831 28.36 0 24.913 0S18.67 2.83 18.67 6.322s2.795 6.323 6.243 6.323Z" fill="#124C5F"/><path d="m28.608 45.933-5.351-2.193 3.185-9.161c-7.135-4-9.683-10.322-9.81-10.71-.765-1.935.127-3.999 2.038-4.773 1.911-.774 3.95.129 4.714 2.064.128.258 1.657 3.613 5.607 6.323l2.42-6.71c.255-.774.128-1.548-.382-2.193-4.587-5.161-9.938-7.097-15.799-5.29-1.656.516-2.803 1.806-3.185 3.483L6.948 43.611v.774l.255 12.257-2.803-.645C2.489 55.61.45 56.9.068 58.836c-.382 1.935.892 4 2.803 4.387l7.262 1.548c1.147.258 2.167 0 3.058-.774.892-.774 1.402-1.806 1.274-2.968l-.254-12.902 9.3 3.741v11.226c0 2.064 1.657 3.741 3.696 3.741 2.038 0 3.695-1.677 3.695-3.741V49.417c.127-1.548-.892-2.839-2.294-3.484Z" fill="#124C5F"/><path d="M38.42 31.87c-12.105-.904-15.928-9.807-16.055-10.194-.51-1.29-1.911-1.806-3.185-1.29s-1.784 1.935-1.274 3.226c.255.516 5.096 12.128 20.258 13.29 1.402.128 2.549-.904 2.549-2.323 0-1.42-.892-2.58-2.294-2.71ZM60.207 15.096c-2.549.516-4.46 2.839-4.46 5.548h11.34c0-2.967-2.166-5.29-4.97-5.677-3.822-4.258-9.937-2.58-14.779 1.677.255.258.51.646.764 1.033 3.44-3.226 8.155-5.42 12.105-2.58ZM79.574 45.675H43.77c-1.02 0-1.912.903-1.912 1.936 0 1.032.892 1.935 1.912 1.935h.382v3.226c0 5.032 4.077 9.16 9.046 9.16h17.2c4.97 0 9.047-4.128 9.047-9.16v-3.226h.383c1.019 0 1.91-.903 1.91-1.935-.254-1.162-1.146-1.936-2.165-1.936ZM56.767 23.225l.127-1.162c0-.387-.127-.645-.51-.645-.382 0-.637.13-.637.516l-.127 1.162c0 .387.127.645.51.645.254 0 .51-.258.637-.516ZM55.238 24.773l-.128 1.161c0 .387.128.645.51.645s.637-.129.637-.516l.127-1.161c0-.387-.127-.645-.51-.645-.254 0-.509.258-.636.516ZM59.57 23.74c.382 0 .637-.257.637-.644v-1.29c0-.388-.255-.646-.637-.646-.383 0-.638.258-.638.645v1.29c0 .259.383.646.638.646ZM58.805 26.063c0 .387.255.645.637.645.383 0 .637-.258.637-.645v-1.29c0-.387-.255-.645-.637-.645s-.637.258-.637.645v1.29ZM63.01 21.29c-.382 0-.637.257-.637.644v1.29c0 .388.255.646.637.646s.637-.258.637-.645v-1.29c0-.388-.255-.646-.637-.646ZM62.628 24.902v1.29c0 .387.255.645.637.645s.637-.258.637-.645v-1.29c0-.387-.255-.645-.637-.645-.51 0-.765.258-.637.645ZM66.323 21.29c-.383 0-.51.386-.51.644l.127 1.162c0 .258.255.516.637.516.383 0 .637-.387.637-.774l-.254-1.033c0-.387-.383-.645-.637-.516ZM66.195 25.031l.128 1.161c0 .258.382.516.637.516.382 0 .637-.387.51-.645v-1.29c0-.387-.383-.516-.638-.516-.382.129-.637.387-.637.774Z" fill="#124C5F"/></svg><svg fill="none" viewBox="0 0 34 14" id="star" xmlns="http://www.w3.org/2000/svg"><path d="M33.588 6.079c.392-.826.509-1.77.33-2.676a4.068 4.068 0 0 0-1.005-2.038A3.663 3.663 0 0 0 31.017.263a3.59 3.59 0 0 0-1.734.015c-.57.146-1.1.43-1.55.83a5.903 5.903 0 0 1-3.95 1.416H10.217a5.903 5.903 0 0 1-3.95-1.416c-.45-.4-.98-.684-1.55-.83A3.59 3.59 0 0 0 2.983.263c-.72.16-1.38.543-1.896 1.102A4.067 4.067 0 0 0 .082 3.403a4.308 4.308 0 0 0 .33 2.676 2.226 2.226 0 0 1 0 1.92 4.32 4.32 0 0 0-.33 2.675c.139.771.489 1.481 1.005 2.04.516.56 1.175.945 1.896 1.106a3.59 3.59 0 0 0 1.734-.015c.57-.146 1.1-.43 1.55-.83a5.909 5.909 0 0 1 3.95-1.422h13.566a5.909 5.909 0 0 1 3.95 1.422c.45.4.98.684 1.55.83a3.59 3.59 0 0 0 1.734.015 3.674 3.674 0 0 0 1.896-1.105c.516-.56.866-1.27 1.005-2.04a4.32 4.32 0 0 0-.33-2.676 2.226 2.226 0 0 1 0-1.92Z" fill="#DDCA69"/></svg><svg fill="none" viewBox="0 0 34 14" id="star-empty" xmlns="http://www.w3.org/2000/svg"><path d="M33.136 5.864a2.726 2.726 0 0 0 0 2.35 3.82 3.82 0 0 1 .292 2.364l-.002.007a3.579 3.579 0 0 1-.88 1.79c-.45.488-1.02.819-1.638.957l-.007.002a3.092 3.092 0 0 1-1.493-.013 3.24 3.24 0 0 1-1.343-.72l-.009-.008a6.409 6.409 0 0 0-4.278-1.54H10.222a6.409 6.409 0 0 0-4.278 1.54l-.01.008a3.24 3.24 0 0 1-1.342.72c-.49.126-1 .13-1.493.013l-.007-.002a3.174 3.174 0 0 1-1.638-.956 3.579 3.579 0 0 1-.88-1.79l-.002-.008a3.82 3.82 0 0 1 .292-2.364 2.726 2.726 0 0 0 0-2.351l-.452.216.452-.215A3.808 3.808 0 0 1 .572 3.5l.002-.008c.122-.68.43-1.301.88-1.788A3.163 3.163 0 0 1 3.09.75L3.099.75a3.09 3.09 0 0 1 1.493.013c.49.126.95.372 1.343.72l.009.008a6.403 6.403 0 0 0 4.279 1.534h13.554a6.403 6.403 0 0 0 4.28-1.534l.008-.008a3.24 3.24 0 0 1 1.343-.72A3.091 3.091 0 0 1 30.9.75l.008.002a3.163 3.163 0 0 1 1.637.953c.45.487.758 1.108.88 1.788l.002.008a3.808 3.808 0 0 1-.291 2.364Zm0 0v-.001l.452.216-.452-.215Z" stroke="#DDCA69"/></svg></svg>